M48
; DRILL file {KiCad 7.0.1} date Wed May 17 14:25:31 2023
; FORMAT={-:-/ absolute / inch / decimal}
; #@! TF.CreationDate,2023-05-17T14:25:31+08:00
; #@! TF.GenerationSoftware,Kicad,Pcbnew,7.0.1
; #@! TF.FileFunction,Plated,1,4,PTH
FMAT,2
INCH
; #@! TA.AperFunction,Plated,PTH,ViaDrill
T1C0.0157
; #@! TA.AperFunction,Plated,PTH,ComponentDrill
T2C0.0276
; #@! TA.AperFunction,Plated,PTH,ComponentDrill
T3C0.0315
; #@! TA.AperFunction,Plated,PTH,ComponentDrill
T4C0.0354
; #@! TA.AperFunction,Plated,PTH,ComponentDrill
T5C0.0394
; #@! TA.AperFunction,Plated,PTH,ComponentDrill
T6C0.0433
; #@! TA.AperFunction,Plated,PTH,ComponentDrill
T7C0.0630
; #@! TA.AperFunction,Plated,PTH,ComponentDrill
T8C0.1378
%
G90
G05
T1
X2.02Y-5.835
X2.025Y-1.455
X2.072Y-1.504
X2.072Y-1.824
X2.08Y-3.44
X2.08Y-3.5
X2.08Y-3.56
X2.08Y-3.62
X2.0807Y-2.9307
X2.0807Y-3.005
X2.0807Y-3.07
X2.0807Y-3.135
X2.085Y-5.8
X2.126Y-3.822
X2.135Y-1.485
X2.16Y-5.795
X2.206Y-5.076
X2.22Y-1.46
X2.23Y-5.825
X2.232Y-4.968
X2.235Y-1.23
X2.238Y-3.782
X2.238Y-5.578
X2.25Y-6.03
X2.254Y-5.076
X2.265Y-5.885
X2.275Y-5.955
X2.308Y-1.296
X2.3253Y-3.8914
X2.33Y-5.384
X2.34Y-2.892
X2.344Y-1.464
X2.344Y-3.624
X2.346Y-3.282
X2.354Y-1.898
X2.356Y-2.07
X2.372Y-3.83
X2.4001Y-2.8159
X2.406Y-3.23
X2.408Y-3.344
X2.408Y-3.628
X2.426Y-1.242
X2.46Y-2.524
X2.468Y-2.1347
X2.477Y-3.713
X2.51Y-4.896
X2.532Y-3.386
X2.54Y-5.598
X2.55Y-1.242
X2.552Y-2.418
X2.562Y-1.498
X2.57Y-3.358
X2.574Y-5.86
X2.594Y-2.302
X2.608Y-2.848
X2.61Y-2.246
X2.6144Y-3.204
X2.616Y-2.75
X2.62Y-4.968
X2.642Y-4.168
X2.646Y-3.808
X2.646Y-3.882
X2.646Y-3.934
X2.646Y-3.99
X2.648Y-5.2312
X2.6541Y-3.0474
X2.67Y-5.144
X2.685Y-1.23
X2.692Y-2.668
X2.692Y-2.668
X2.692Y-5.0147
X2.704Y-3.086
X2.708Y-5.102
X2.722Y-2.292
X2.738Y-4.644
X2.74Y-3.502
X2.7451Y-4.192
X2.746Y-3.946
X2.746Y-5.058
X2.756Y-2.446
X2.756Y-4.328
X2.7613Y-3.7393
X2.763Y-5.359
X2.768Y-4.508
X2.774Y-3.474
X2.775Y-1.23
X2.776Y-5.13
X2.792Y-4.106
X2.796Y-4.706
X2.8Y-3.63
X2.8Y-3.7
X2.81Y-5.182
X2.82Y-5.058
X2.846Y-4.446
X2.848Y-2.764
X2.86Y-1.23
X2.86Y-5.2
X2.878Y-2.042
X2.878Y-2.134
X2.89Y-6.03
X2.898Y-3.444
X2.904Y-4.334
X2.906Y-2.258
X2.91Y-3.59
X2.914Y-2.33
X2.924Y-2.018
X2.926Y-4.2169
X2.93Y-4.754
X2.93Y-5.602
X2.934Y-1.83
X2.945Y-1.23
X2.946Y-3.072
X2.948Y-3.442
X2.958Y-1.968
X2.97Y-3.562
X2.972Y-2.546
X2.976Y-4.778
X2.982Y-4.336
X2.984Y-4.858
X2.986Y-2.77
X2.99Y-2.848
X2.99Y-2.908
X2.992Y-3.6245
X2.996Y-2.202
X2.998Y-3.704
X3.0Y-6.068
X3.006Y-3.862
X3.014Y-4.634
X3.022Y-2.26
X3.024Y-4.592
X3.025Y-1.23
X3.036Y-4.838
X3.04Y-4.554
X3.04Y-5.498
X3.048Y-1.83
X3.048Y-4.692
X3.0514Y-3.128
X3.06Y-4.52
X3.068Y-4.078
X3.07Y-2.998
X3.07Y-4.336
X3.072Y-5.086
X3.074Y-2.75
X3.079Y-3.22
X3.08Y-3.28
X3.082Y-2.218
X3.084Y-5.466
X3.11Y-1.23
X3.112Y-3.128
X3.1185Y-3.7116
X3.12Y-3.636
X3.122Y-3.59
X3.122Y-3.77
X3.13Y-3.474
X3.1372Y-3.9645
X3.138Y-5.436
X3.14Y-2.91
X3.148Y-2.696
X3.15Y-2.546
X3.15Y-2.9812
X3.15Y-3.8804
X3.154Y-1.928
X3.156Y-3.6661
X3.164Y-5.3051
X3.166Y-3.512
X3.174Y-3.778
X3.174Y-3.822
X3.184Y-5.404
X3.19Y-1.23
X3.194Y-2.158
X3.194Y-2.516
X3.195Y-2.9812
X3.198Y-3.546
X3.202Y-3.144
X3.21Y-1.698
X3.21Y-2.262
X3.21Y-4.9829
X3.216Y-5.088
X3.2161Y-5.1361
X3.218Y-2.484
X3.22Y-5.36
X3.222Y-3.74
X3.238Y-3.58
X3.24Y-2.985
X3.246Y-3.218
X3.2626Y-4.8894
X3.27Y-1.23
X3.2714Y-4.188
X3.2776Y-4.0527
X3.292Y-3.444
X3.298Y-2.874
X3.298Y-3.186
X3.308Y-2.954
X3.314Y-4.666
X3.316Y-2.26
X3.328Y-3.502
X3.332Y-2.138
X3.338Y-1.992
X3.34Y-1.296
X3.345Y-3.4509
X3.346Y-5.582
X3.35Y-1.23
X3.35Y-2.504
X3.356Y-4.822
X3.358Y-3.536
X3.36Y-5.232
X3.362Y-1.49
X3.364Y-4.7709
X3.3708Y-3.9988
X3.385Y-5.85
X3.386Y-3.942
X3.388Y-2.328
X3.388Y-5.186
X3.39Y-4.34
X3.396Y-3.57
X3.396Y-5.456
X3.406Y-4.724
X3.412Y-4.488
X3.418Y-3.3499
X3.422Y-4.066
X3.424Y-3.966
X3.426Y-2.268
X3.426Y-3.604
X3.426Y-3.908
X3.428Y-3.394
X3.43Y-1.23
X3.436Y-5.29
X3.438Y-2.822
X3.44Y-4.34
X3.446Y-1.628
X3.4562Y-3.0648
X3.46Y-5.522
X3.462Y-3.636
X3.462Y-4.626
X3.468Y-2.424
X3.474Y-2.636
X3.474Y-3.386
X3.4753Y-4.8251
X3.476Y-4.6709
X3.476Y-4.178
X3.478Y-3.844
X3.4839Y-3.148
X3.488Y-5.468
X3.49Y-3.426
X3.494Y-3.09
X3.494Y-3.672
X3.494Y-5.336
X3.4995Y-5.128
X3.506Y-5.278
X3.51Y-1.23
X3.51Y-3.884
X3.514Y-4.7689
X3.515Y-5.845
X3.52Y-3.71
X3.5208Y-3.1188
X3.5335Y-4.06
X3.534Y-3.434
X3.552Y-3.91
X3.554Y-3.084
X3.5567Y-3.78
X3.56Y-2.64
X3.56Y-4.34
X3.564Y-4.02
X3.576Y-4.588
X3.586Y-3.858
X3.59Y-3.116
X3.5921Y-3.0379
X3.5922Y-4.0602
X3.598Y-1.704
X3.602Y-3.16
X3.606Y-1.83
X3.6133Y-2.9265
X3.614Y-4.4449
X3.615Y-2.78
X3.615Y-2.85
X3.62Y-4.38
X3.624Y-1.99
X3.6335Y-4.34
X3.635Y-4.057
X3.64Y-5.266
X3.644Y-4.4949
X3.646Y-3.366
X3.6465Y-2.9725
X3.657Y-3.407
X3.672Y-3.854
X3.672Y-5.608
X3.678Y-1.704
X3.68Y-4.058
X3.692Y-3.6509
X3.698Y-4.5109
X3.6999Y-3.9488
X3.7Y-1.296
X3.7Y-3.42
X3.7Y-5.454
X3.726Y-1.422
X3.728Y-3.6129
X3.73Y-5.845
X3.732Y-1.938
X3.732Y-3.854
X3.76Y-2.8704
X3.76Y-3.81
X3.766Y-2.464
X3.7661Y-3.062
X3.77Y-3.504
X3.77Y-3.552
X3.7706Y-3.9706
X3.792Y-3.6529
X3.792Y-3.854
X3.798Y-1.628
X3.802Y-1.892
X3.81Y-2.675
X3.816Y-4.242
X3.8179Y-5.0127
X3.82Y-5.286
X3.8232Y-3.0212
X3.832Y-3.466
X3.838Y-3.6249
X3.844Y-3.854
X3.848Y-3.75
X3.858Y-5.248
X3.86Y-2.47
X3.862Y-3.2289
X3.862Y-4.128
X3.862Y-4.222
X3.864Y-3.29
X3.878Y-3.184
X3.884Y-4.35
X3.884Y-1.982
X3.9Y-3.2609
X3.9006Y-1.3387
X3.91Y-2.695
X3.91Y-2.745
X3.91Y-2.795
X3.916Y-4.496
X3.93Y-3.154
X3.94Y-5.41
X3.94Y-5.714
X3.948Y-4.0929
X3.962Y-3.306
X3.964Y-4.584
X3.965Y-2.485
X3.965Y-2.66
X3.97Y-3.575
X3.972Y-3.434
X3.984Y-4.5468
X3.988Y-1.44
X4.002Y-1.394
X4.022Y-3.1889
X4.034Y-4.34
X4.05Y-3.56
X4.076Y-3.184
X4.078Y-2.926
X4.084Y-4.252
X4.09Y-3.435
X4.09Y-3.49
X4.104Y-2.964
X4.11Y-3.56
X4.132Y-3.182
X4.142Y-1.328
X4.144Y-1.224
X4.145Y-2.585
X4.145Y-2.89
X4.15Y-3.612
X4.15Y-3.68
X4.15Y-3.824
X4.15Y-3.89
X4.152Y-4.932
X4.154Y-4.01
X4.154Y-4.45
X4.185Y-3.175
X4.22Y-3.205
X4.222Y-4.518
X4.223Y-3.827
X4.224Y-1.224
X4.224Y-3.922
X4.23Y-4.1
X4.2358Y-3.7426
X4.24Y-2.88
X4.244Y-1.514
X4.25Y-4.0469
X4.256Y-4.486
X4.26Y-4.666
X4.268Y-3.8
X4.27Y-3.12
X4.272Y-4.134
X4.274Y-4.204
X4.274Y-4.248
X4.279Y-3.9215
X4.292Y-1.814
X4.292Y-1.882
X4.295Y-2.85
X4.296Y-1.224
X4.304Y-3.092
X4.32Y-4.374
X4.322Y-4.716
X4.3419Y-3.0661
X4.344Y-1.4416
X4.36Y-1.608
X4.36Y-2.702
X4.39Y-4.022
X4.412Y-4.764
X4.496Y-1.872
X4.496Y-3.694
X4.506Y-1.918
X4.556Y-3.694
X4.564Y-1.76
X4.586Y-3.814
X4.598Y-2.17
X4.63Y-3.692
X4.635Y-1.86
X4.6356Y-2.1487
X4.638Y-3.792
X4.65Y-1.292
X4.665Y-1.56
X4.665Y-2.07
X4.676Y-2.7
X4.678Y-2.984
X4.68Y-3.702
X4.686Y-3.768
X4.7Y-1.855
X4.71Y-2.8
X4.71Y-2.9
X4.72Y-2.06
X4.7312Y-3.6932
X4.745Y-1.785
X4.76Y-2.145
X4.762Y-5.186
X4.764Y-1.292
X4.768Y-4.368
X4.795Y-2.06
X4.798Y-3.7254
X4.802Y-2.286
X4.802Y-2.332
X4.802Y-2.378
X4.815Y-1.56
X4.816Y-5.176
X4.818Y-1.618
X4.8239Y-1.98
X4.828Y-2.43
X4.858Y-1.746
X4.862Y-1.802
X4.87Y-5.168
X4.872Y-3.44
X4.9Y-2.428
X4.922Y-5.172
X4.962Y-1.646
X4.974Y-3.05
X4.976Y-2.428
X4.988Y-5.796
X4.998Y-2.136
X5.004Y-4.384
X5.026Y-3.042
X5.036Y-4.89
X5.052Y-2.426
X5.062Y-1.218
X5.074Y-3.086
X5.096Y-4.096
X5.11Y-4.406
X5.116Y-3.004
X5.12Y-2.14
X5.124Y-3.15
X5.126Y-5.796
X5.13Y-4.136
X5.132Y-1.802
X5.14Y-1.542
X5.158Y-4.752
X5.162Y-2.422
X5.186Y-4.172
X5.222Y-3.812
X5.224Y-1.642
X5.226Y-4.086
X5.234Y-4.142
X5.236Y-2.42
X5.248Y-4.714
X5.27Y-2.144
X5.284Y-5.464
X5.3Y-4.034
X5.314Y-2.416
X5.324Y-5.412
X5.332Y-3.69
X5.332Y-3.994
X5.348Y-3.814
X5.384Y-2.572
X5.414Y-1.8
X5.416Y-1.54
X5.418Y-1.462
X5.436Y-2.482
X5.5Y-5.126
X5.5118Y-4.036
X5.5119Y-3.994
X5.512Y-2.648
X5.512Y-2.758
X5.512Y-3.926
X5.512Y-5.732
X5.5129Y-1.6431
X5.584Y-4.274
X5.606Y-5.626
X5.61Y-5.52
X5.688Y-2.218
X5.698Y-4.0049
X5.704Y-2.028
X5.704Y-3.236
X5.73Y-1.235
X5.74Y-4.842
X5.746Y-4.004
X5.752Y-3.26
X5.772Y-3.942
X5.774Y-4.878
X5.78Y-1.852
X5.806Y-4.914
X5.808Y-3.278
X5.812Y-4.006
X5.815Y-1.235
X5.848Y-1.806
X5.852Y-4.916
X5.862Y-2.144
X5.8732Y-3.1081
X5.8765Y-3.2845
X5.878Y-3.2189
X5.886Y-3.982
X5.888Y-5.1641
X5.895Y-1.235
X5.9Y-4.5649
X5.926Y-4.6069
X5.9436Y-3.1044
X5.952Y-3.2049
X5.958Y-4.6449
X5.98Y-1.235
X5.98Y-5.9389
X5.984Y-2.15
X5.9983Y-4.6704
X6.0Y-1.916
X6.012Y-5.46
X6.02Y-5.922
X6.03Y-5.2241
X6.044Y-5.422
X6.046Y-5.372
X6.048Y-5.106
X6.048Y-5.326
X6.064Y-5.91
X6.0655Y-4.2255
X6.0675Y-4.2975
X6.0675Y-4.3675
X6.0675Y-4.4415
X6.075Y-1.235
X6.12Y-4.19
X6.136Y-2.112
X6.138Y-1.916
X6.165Y-1.235
X6.168Y-4.822
X6.182Y-5.8289
X6.188Y-4.242
X6.194Y-4.784
X6.196Y-4.856
X6.212Y-5.604
X6.22Y-5.204
X6.2362Y-5.264
X6.2538Y-5.7488
X6.255Y-1.235
X6.262Y-5.552
X6.264Y-5.164
X6.264Y-5.472
X6.27Y-2.106
X6.274Y-1.916
X6.28Y-4.798
X6.29Y-2.825
X6.294Y-3.692
X6.296Y-3.624
X6.296Y-3.762
X6.296Y-4.118
X6.298Y-3.832
X6.298Y-3.9022
X6.298Y-3.974
X6.298Y-4.046
X6.298Y-5.51
X6.308Y-5.856
X6.316Y-4.842
X6.316Y-5.258
X6.338Y-3.798
X6.338Y-3.868
X6.338Y-3.938
X6.338Y-4.01
X6.34Y-3.728
X6.345Y-1.235
X6.364Y-5.258
X6.386Y-4.788
X6.396Y-2.7249
X6.414Y-5.258
X6.416Y-1.428
X6.422Y-4.534
X6.435Y-1.235
X6.44Y-5.85
X6.442Y-4.588
X6.448Y-5.226
X6.468Y-4.79
X6.474Y-4.626
X6.476Y-5.0
X6.484Y-5.264
X6.488Y-5.5155
X6.495Y-2.825
X6.495Y-2.935
X6.495Y-3.04
X6.495Y-3.145
X6.495Y-3.235
X6.514Y-4.664
X6.554Y-5.434
X6.566Y-4.56
X6.568Y-5.868
X6.572Y-6.018
X6.574Y-1.876
X6.574Y-5.816
X6.582Y-5.77
X6.588Y-5.908
X6.6Y-3.37
X6.6Y-3.475
X6.6Y-3.575
X6.602Y-5.38
X6.64Y-4.878
X6.642Y-5.924
X6.646Y-5.36
X6.654Y-4.754
X6.66Y-4.916
X6.67Y-5.086
X6.686Y-4.56
X6.69Y-5.952
X6.692Y-5.362
X6.696Y-5.244
X6.7Y-2.825
X6.7Y-2.935
X6.7Y-3.04
X6.7Y-3.14
X6.7Y-3.24
X6.7Y-4.02
X6.7Y-4.096
X6.702Y-3.854
X6.702Y-3.934
X6.702Y-4.158
X6.736Y-5.042
X6.736Y-5.196
X6.736Y-5.344
X6.776Y-2.6224
X6.78Y-2.5651
X6.7837Y-2.6797
X6.784Y-2.5161
X6.794Y-2.46
X6.805Y-3.375
X6.805Y-3.48
X6.805Y-3.58
X6.806Y-4.56
X6.8213Y-2.398
X6.826Y-2.7133
X6.852Y-5.358
X6.878Y-4.56
X6.905Y-2.825
X6.905Y-2.935
X6.905Y-3.04
X6.905Y-3.145
X6.905Y-3.245
X6.952Y-5.358
X6.996Y-4.536
X6.998Y-2.048
X7.0003Y-1.9409
X7.035Y-1.465
X7.04Y-1.645
X7.062Y-1.954
X7.062Y-2.076
X7.085Y-2.825
X7.085Y-2.935
X7.085Y-3.04
X7.085Y-3.14
X7.085Y-3.24
X7.102Y-4.932
X7.112Y-4.89
X7.116Y-4.536
X7.118Y-5.1
X7.132Y-4.754
X7.132Y-4.826
X7.16Y-1.235
X7.164Y-5.836
X7.186Y-2.69
X7.194Y-5.868
X7.226Y-2.746
X7.27Y-3.045
X7.29Y-2.93
X7.302Y-3.2
X7.33Y-2.815
X7.332Y-4.516
X7.335Y-5.89
X7.344Y-4.634
X7.346Y-5.384
X7.38Y-5.114
X7.384Y-1.946
X7.384Y-2.058
X7.39Y-2.745
X7.396Y-4.542
X7.405Y-1.46
X7.405Y-1.575
X7.414Y-3.662
X7.42Y-3.2
X7.42Y-5.112
X7.426Y-2.63
X7.452Y-2.592
X7.47Y-4.725
X7.47Y-5.02
X7.488Y-5.368
X7.52Y-1.96
X7.52Y-2.088
X7.535Y-1.24
X7.54Y-3.198
X7.576Y-5.454
X7.58Y-3.69
X7.582Y-5.668
X7.586Y-2.066
X7.586Y-2.264
X7.61Y-5.246
X7.622Y-4.532
X7.63Y-3.7215
X7.642Y-6.04
X7.644Y-5.454
X7.656Y-4.61
X7.66Y-5.094
X7.696Y-4.532
X7.702Y-2.47
X7.716Y-5.102
X7.724Y-4.61
X7.732Y-5.536
X7.734Y-5.618
X7.742Y-2.51
X7.754Y-5.126
X7.758Y-2.57
X7.766Y-4.548
X7.77Y-2.932
X7.775Y-1.45
X7.775Y-1.555
X7.786Y-5.372
X7.794Y-2.998
X7.806Y-3.226
X7.81Y-5.006
X7.83Y-2.108
X7.83Y-2.234
X7.836Y-2.966
X7.842Y-2.608
X7.842Y-2.66
X7.842Y-3.092
X7.885Y-5.002
X7.886Y-4.826
X7.888Y-3.06
X7.89Y-5.586
X7.9Y-3.753
X7.905Y-1.24
X7.936Y-3.03
X7.936Y-3.7844
X7.938Y-5.141
X7.952Y-3.8789
X7.956Y-3.28
X7.96Y-2.808
X7.982Y-2.588
X7.996Y-3.91
X8.0Y-6.05
X8.006Y-3.472
X8.008Y-2.776
X8.008Y-2.838
X8.01Y-3.248
X8.032Y-4.1978
X8.038Y-5.222
X8.04Y-4.13
X8.048Y-2.87
X8.052Y-2.746
X8.062Y-3.218
X8.066Y-4.274
X8.076Y-3.942
X8.088Y-4.1
X8.088Y-4.162
X8.09Y-2.902
X8.095Y-6.05
X8.106Y-4.226
X8.106Y-5.224
X8.11Y-1.58
X8.11Y-1.722
X8.12Y-2.628
X8.128Y-4.318
X8.1309Y-4.486
X8.145Y-1.45
X8.18Y-6.05
X8.184Y-2.628
X8.1848Y-2.5688
X8.208Y-5.35
X8.2652Y-4.4392
X8.2674Y-4.0486
X8.268Y-2.8
X8.268Y-2.84
X8.268Y-2.88
X8.268Y-2.9194
X8.268Y-2.962
X8.268Y-3.092
X8.268Y-3.154
X8.268Y-3.214
X8.268Y-3.374
X8.268Y-3.512
X8.268Y-3.572
X8.268Y-3.658
X8.268Y-3.7042
X8.268Y-3.766
X8.268Y-3.808
X8.268Y-3.848
X8.268Y-3.914
X8.268Y-4.004
X8.268Y-4.118
X8.2691Y-3.616
X8.275Y-1.24
X8.288Y-4.48
X8.29Y-4.548
X8.33Y-4.55
X8.344Y-2.642
X8.346Y-2.48
X8.386Y-4.55
X8.388Y-4.508
X8.41Y-1.905
X8.41Y-4.378
X8.414Y-4.268
X8.422Y-4.432
X8.424Y-3.564
X8.425Y-6.055
X8.432Y-4.072
X8.434Y-2.336
X8.436Y-4.304
X8.436Y-4.55
X8.444Y-3.472
X8.452Y-3.762
X8.46Y-1.856
X8.47Y-2.096
X8.48Y-3.502
X8.484Y-2.392
X8.502Y-3.342
X8.505Y-6.055
X8.514Y-3.77
X8.538Y-4.072
X8.548Y-3.384
X8.57Y-4.19
X8.575Y-6.055
X8.586Y-3.416
X8.588Y-3.732
X8.616Y-4.23
X8.616Y-4.9
X8.618Y-5.0
X8.618Y-5.102
X8.618Y-5.2
X8.622Y-3.45
X8.628Y-3.102
X8.63Y-4.8
X8.634Y-3.702
X8.636Y-4.59
X8.662Y-4.258
X8.668Y-4.694
X8.674Y-3.05
X8.684Y-3.728
X8.7Y-4.462
X8.71Y-5.125
X8.72Y-4.87
X8.722Y-2.998
X8.722Y-4.422
X8.732Y-3.762
X8.736Y-4.374
X8.74Y-2.458
X8.774Y-2.268
X8.775Y-1.25
X8.78Y-1.725
X8.78Y-1.8
X8.785Y-1.445
X8.785Y-1.57
X8.798Y-5.932
X8.7991Y-4.3478
X8.805Y-6.05
X8.814Y-2.23
X8.875Y-5.79
X8.91Y-4.52
X8.912Y-4.62
X8.93Y-4.558
X8.934Y-3.064
X8.94Y-5.7
X8.965Y-6.05
X9.032Y-3.358
X9.034Y-4.49
X9.05Y-5.98
X9.065Y-6.05
X9.12Y-1.3
X9.125Y-1.38
X9.125Y-5.695
X9.125Y-5.925
X9.13Y-1.565
X9.13Y-1.67
X9.15Y-6.005
X9.155Y-1.24
X9.155Y-5.85
X9.158Y-4.448
X9.17Y-1.46
X9.195Y-6.06
X9.225Y-5.795
X9.242Y-3.856
X9.25Y-4.508
X9.26Y-1.49
X9.295Y-3.705
X9.335Y-5.8
X9.336Y-3.446
X9.355Y-1.48
X9.38Y-4.475
X9.38Y-4.565
X9.385Y-4.09
X9.385Y-4.185
X9.395Y-3.585
X9.4Y-2.32
X9.4Y-2.5
X9.4Y-2.675
X9.4Y-2.805
X9.4Y-2.935
X9.4Y-3.065
X9.4Y-3.195
X9.405Y-5.835
T4
X4.2913Y-5.4331
X4.3413Y-5.3331
X4.3913Y-5.4331
X4.4413Y-5.3331
X4.4913Y-5.4331
X4.5413Y-5.3331
X4.5913Y-5.4331
X4.6413Y-5.3331
X5.4724Y-5.4331
X5.5224Y-5.3331
X5.5724Y-5.4331
X5.6224Y-5.3331
X5.6724Y-5.4331
X5.7224Y-5.3331
X5.7724Y-5.4331
X5.8224Y-5.3331
T5
X2.0658Y-2.716
X2.126Y-3.937
X2.126Y-4.037
X2.126Y-4.137
X2.126Y-4.237
X2.126Y-4.337
X2.126Y-4.437
X2.126Y-4.537
X2.126Y-4.637
X2.126Y-4.737
X2.126Y-4.837
X2.1658Y-2.716
X2.226Y-3.937
X2.226Y-4.037
X2.226Y-4.137
X2.226Y-4.237
X2.226Y-4.337
X2.226Y-4.437
X2.226Y-4.537
X2.226Y-4.637
X2.226Y-4.737
X2.226Y-4.837
X2.4606Y-3.937
X2.4606Y-4.037
X2.4606Y-4.137
X2.4606Y-4.237
X2.4606Y-4.337
X2.4606Y-4.437
X2.4606Y-4.537
X2.4606Y-4.637
X2.4606Y-4.737
X2.4606Y-4.837
X2.5606Y-3.937
X2.5606Y-4.037
X2.5606Y-4.137
X2.5606Y-4.237
X2.5606Y-4.337
X2.5606Y-4.437
X2.5606Y-4.537
X2.5606Y-4.637
X2.5606Y-4.737
X2.5606Y-4.837
X3.634Y-2.294
X3.634Y-2.394
X3.734Y-2.294
X3.734Y-2.394
X3.834Y-2.294
X3.834Y-2.394
X3.928Y-4.782
X3.928Y-4.882
X3.928Y-4.982
X3.934Y-2.294
X3.934Y-2.394
X4.034Y-2.294
X4.034Y-2.394
X4.2058Y-2.2938
X4.2058Y-2.3938
X4.3058Y-2.2938
X4.3058Y-2.3938
X4.4058Y-2.2938
X4.4058Y-2.3938
X4.5058Y-2.2938
X4.5058Y-2.3938
X4.5063Y-2.6019
X4.5063Y-2.7019
X4.5063Y-2.8019
X4.5063Y-2.9019
X4.5063Y-3.0019
X4.5063Y-3.1019
X4.5063Y-3.2019
X4.5063Y-3.3019
X4.5063Y-3.4019
X4.5063Y-3.5019
X4.5063Y-3.916
X4.5063Y-4.016
X4.5063Y-4.116
X4.5063Y-4.216
X4.5063Y-4.316
X4.5063Y-4.416
X4.5063Y-4.516
X4.5063Y-4.616
X4.5063Y-4.716
X4.5063Y-4.816
X4.6058Y-2.2938
X4.6058Y-2.3938
X4.6063Y-2.6019
X4.6063Y-2.7019
X4.6063Y-2.8019
X4.6063Y-2.9019
X4.6063Y-3.0019
X4.6063Y-3.1019
X4.6063Y-3.2019
X4.6063Y-3.3019
X4.6063Y-3.4019
X4.6063Y-3.5019
X4.6063Y-3.916
X4.6063Y-4.016
X4.6063Y-4.116
X4.6063Y-4.216
X4.6063Y-4.316
X4.6063Y-4.416
X4.6063Y-4.516
X4.6063Y-4.616
X4.6063Y-4.716
X4.6063Y-4.816
X4.8213Y-2.6019
X4.8213Y-2.7019
X4.8213Y-2.8019
X4.8213Y-2.9019
X4.8213Y-3.0019
X4.8213Y-3.1019
X4.8213Y-3.2019
X4.8213Y-3.3019
X4.8213Y-3.4019
X4.8213Y-3.5019
X4.8213Y-3.916
X4.8213Y-4.016
X4.8213Y-4.116
X4.8213Y-4.216
X4.8213Y-4.316
X4.8213Y-4.416
X4.8213Y-4.516
X4.8213Y-4.616
X4.8213Y-4.716
X4.8213Y-4.816
X4.9213Y-2.6019
X4.9213Y-2.7019
X4.9213Y-2.8019
X4.9213Y-2.9019
X4.9213Y-3.0019
X4.9213Y-3.1019
X4.9213Y-3.2019
X4.9213Y-3.3019
X4.9213Y-3.4019
X4.9213Y-3.5019
X4.9213Y-3.916
X4.9213Y-4.016
X4.9213Y-4.116
X4.9213Y-4.216
X4.9213Y-4.316
X4.9213Y-4.416
X4.9213Y-4.516
X4.9213Y-4.616
X4.9213Y-4.716
X4.9213Y-4.816
X4.9574Y-5.6198
X4.9574Y-5.7198
X4.966Y-1.926
X4.966Y-2.026
X5.0574Y-5.6198
X5.0574Y-5.7198
X5.066Y-1.926
X5.066Y-2.026
X5.15Y-4.8198
X5.15Y-4.9198
X5.1574Y-5.6198
X5.1574Y-5.7198
X5.166Y-1.926
X5.166Y-2.026
X5.25Y-4.8198
X5.25Y-4.9198
X5.266Y-1.926
X5.266Y-2.026
X5.35Y-4.8198
X5.35Y-4.9198
X5.45Y-4.8198
X5.45Y-4.9198
X5.55Y-4.8198
X5.55Y-4.9198
X5.65Y-4.8198
X5.65Y-4.9198
X6.5994Y-1.2738
X6.5994Y-1.3738
X6.6006Y-1.5362
X6.6006Y-1.6362
X6.6994Y-1.2738
X6.6994Y-1.3738
X6.7006Y-1.5362
X6.7006Y-1.6362
X6.7994Y-1.2738
X6.7994Y-1.3738
X6.8006Y-1.5362
X6.8006Y-1.6362
X6.9524Y-1.7122
X6.9524Y-1.8122
X7.0524Y-1.7122
X7.0524Y-1.8122
X7.1524Y-1.7122
X7.1524Y-1.8122
X7.2524Y-1.7122
X7.2524Y-1.8122
X7.255Y-1.33
X7.255Y-1.43
X7.255Y-1.53
X7.625Y-1.33
X7.625Y-1.43
X7.625Y-1.53
X7.995Y-1.325
X7.995Y-1.425
X7.995Y-1.525
X8.326Y-4.75
X8.326Y-4.85
X8.326Y-4.95
X8.326Y-5.05
X8.326Y-5.15
X8.326Y-5.25
X8.326Y-5.35
X8.326Y-5.45
X8.365Y-1.33
X8.365Y-1.43
X8.365Y-1.53
X8.66Y-1.3304
X8.66Y-1.4304
X8.66Y-1.5304
X8.66Y-1.6304
X8.66Y-1.816
X8.66Y-1.916
X8.66Y-2.016
X8.66Y-2.116
X8.83Y-4.7
X8.83Y-4.975
X8.83Y-5.25
X8.83Y-5.525
X8.885Y-2.316
X8.885Y-2.416
X8.885Y-2.516
X8.885Y-2.616
X8.885Y-2.716
X8.885Y-2.816
X8.885Y-2.916
X8.885Y-3.016
X8.885Y-3.116
X8.885Y-3.216
X8.886Y-3.434
X8.886Y-3.534
X8.886Y-3.634
X8.886Y-3.734
X8.886Y-3.834
X8.886Y-3.934
X8.886Y-4.034
X8.886Y-4.134
X8.886Y-4.234
X8.886Y-4.334
X8.93Y-4.7
X8.93Y-4.975
X8.93Y-5.25
X8.93Y-5.525
X8.985Y-2.316
X8.985Y-2.416
X8.985Y-2.516
X8.985Y-2.616
X8.985Y-2.716
X8.985Y-2.816
X8.985Y-2.916
X8.985Y-3.016
X8.985Y-3.116
X8.985Y-3.216
X8.986Y-3.434
X8.986Y-3.534
X8.986Y-3.634
X8.986Y-3.734
X8.986Y-3.834
X8.986Y-3.934
X8.986Y-4.034
X8.986Y-4.134
X8.986Y-4.234
X8.986Y-4.334
X8.99Y-1.3254
X8.99Y-1.4254
X8.99Y-1.5254
X8.99Y-1.6254
X8.99Y-1.8104
X8.99Y-1.9104
X8.99Y-2.0104
X8.99Y-2.1104
X9.03Y-4.7
X9.03Y-4.975
X9.03Y-5.25
X9.03Y-5.525
X9.13Y-4.7
X9.13Y-4.975
X9.13Y-5.25
X9.13Y-5.525
X9.1938Y-3.9406
X9.1938Y-4.0406
X9.1938Y-4.1406
X9.202Y-2.316
X9.202Y-2.416
X9.202Y-2.516
X9.202Y-2.616
X9.202Y-2.716
X9.202Y-2.816
X9.202Y-2.916
X9.202Y-3.016
X9.202Y-3.116
X9.202Y-3.216
X9.23Y-4.7
X9.23Y-4.975
X9.23Y-5.25
X9.23Y-5.525
X9.2938Y-3.9406
X9.2938Y-4.0406
X9.2938Y-4.1406
X9.302Y-2.316
X9.302Y-2.416
X9.302Y-2.516
X9.302Y-2.616
X9.302Y-2.716
X9.302Y-2.816
X9.302Y-2.916
X9.302Y-3.016
X9.302Y-3.116
X9.302Y-3.216
X9.305Y-1.8104
X9.305Y-1.9104
X9.305Y-2.0104
X9.305Y-2.1104
X9.33Y-4.7
X9.33Y-4.975
X9.33Y-5.25
X9.33Y-5.525
T6
X4.2055Y-5.876
X4.3055Y-5.876
X4.6272Y-5.876
X4.7272Y-5.876
X5.3866Y-5.876
X5.4866Y-5.876
X5.8083Y-5.876
X5.9083Y-5.876
T7
X4.1614Y-5.563
X4.7713Y-5.563
X5.3425Y-5.563
X5.9524Y-5.563
T8
X2.126Y-1.3386
X2.126Y-5.9449
X9.2907Y-5.9438
X9.2913Y-1.3386
T2
G00X2.265Y-2.8634
M15
G01X2.2256Y-2.8634
M16
G05
G00X2.265Y-3.1998
M15
G01X2.2256Y-3.1998
M16
G05
G00X2.265Y-3.3752
M15
G01X2.2256Y-3.3752
M16
G05
G00X2.265Y-3.7116
M15
G01X2.2256Y-3.7116
M16
G05
T3
G00X2.0846Y-2.8634
M15
G01X2.0768Y-2.8634
M16
G05
G00X2.0846Y-3.1998
M15
G01X2.0768Y-3.1998
M16
G05
G00X2.0846Y-3.3752
M15
G01X2.0768Y-3.3752
M16
G05
G00X2.0846Y-3.7116
M15
G01X2.0768Y-3.7116
M16
G05
T0
M30
