%TF.GenerationSoftware,KiCad,Pcbnew,7.0.1*%
%TF.CreationDate,2023-05-17T15:07:38+08:00*%
%TF.ProjectId,PSVB_EvalBoard,50535642-5f45-4766-916c-426f6172642e,rev?*%
%TF.SameCoordinates,Original*%
%TF.FileFunction,Soldermask,Top*%
%TF.FilePolarity,Negative*%
%FSLAX46Y46*%
G04 Gerber Fmt 4.6, Leading zero omitted, Abs format (unit mm)*
G04 Created by KiCad (PCBNEW 7.0.1) date 2023-05-17 15:07:38*
%MOMM*%
%LPD*%
G01*
G04 APERTURE LIST*
G04 Aperture macros list*
%AMRoundRect*
0 Rectangle with rounded corners*
0 $1 Rounding radius*
0 $2 $3 $4 $5 $6 $7 $8 $9 X,Y pos of 4 corners*
0 Add a 4 corners polygon primitive as box body*
4,1,4,$2,$3,$4,$5,$6,$7,$8,$9,$2,$3,0*
0 Add four circle primitives for the rounded corners*
1,1,$1+$1,$2,$3*
1,1,$1+$1,$4,$5*
1,1,$1+$1,$6,$7*
1,1,$1+$1,$8,$9*
0 Add four rect primitives between the rounded corners*
20,1,$1+$1,$2,$3,$4,$5,0*
20,1,$1+$1,$4,$5,$6,$7,0*
20,1,$1+$1,$6,$7,$8,$9,0*
20,1,$1+$1,$8,$9,$2,$3,0*%
G04 Aperture macros list end*
%ADD10RoundRect,0.150000X0.150000X-0.587500X0.150000X0.587500X-0.150000X0.587500X-0.150000X-0.587500X0*%
%ADD11RoundRect,0.237500X0.237500X-0.300000X0.237500X0.300000X-0.237500X0.300000X-0.237500X-0.300000X0*%
%ADD12RoundRect,0.237500X0.300000X0.237500X-0.300000X0.237500X-0.300000X-0.237500X0.300000X-0.237500X0*%
%ADD13RoundRect,0.237500X0.237500X-0.250000X0.237500X0.250000X-0.237500X0.250000X-0.237500X-0.250000X0*%
%ADD14RoundRect,0.237500X0.237500X-0.287500X0.237500X0.287500X-0.237500X0.287500X-0.237500X-0.287500X0*%
%ADD15R,1.700000X1.700000*%
%ADD16O,1.700000X1.700000*%
%ADD17RoundRect,0.237500X-0.237500X0.250000X-0.237500X-0.250000X0.237500X-0.250000X0.237500X0.250000X0*%
%ADD18RoundRect,0.237500X-0.300000X-0.237500X0.300000X-0.237500X0.300000X0.237500X-0.300000X0.237500X0*%
%ADD19C,2.000000*%
%ADD20RoundRect,0.237500X-0.237500X0.300000X-0.237500X-0.300000X0.237500X-0.300000X0.237500X0.300000X0*%
%ADD21C,1.500000*%
%ADD22RoundRect,0.250000X-0.250000X0.250000X-0.250000X-0.250000X0.250000X-0.250000X0.250000X0.250000X0*%
%ADD23RoundRect,0.237500X-0.250000X-0.237500X0.250000X-0.237500X0.250000X0.237500X-0.250000X0.237500X0*%
%ADD24RoundRect,0.237500X-0.237500X0.287500X-0.237500X-0.287500X0.237500X-0.287500X0.237500X0.287500X0*%
%ADD25RoundRect,0.237500X0.250000X0.237500X-0.250000X0.237500X-0.250000X-0.237500X0.250000X-0.237500X0*%
%ADD26R,1.500000X1.500000*%
%ADD27RoundRect,0.150000X-0.150000X0.825000X-0.150000X-0.825000X0.150000X-0.825000X0.150000X0.825000X0*%
%ADD28R,1.120000X2.440000*%
%ADD29RoundRect,0.250000X1.500000X0.550000X-1.500000X0.550000X-1.500000X-0.550000X1.500000X-0.550000X0*%
%ADD30C,5.304000*%
%ADD31RoundRect,0.050000X0.500000X-1.500000X0.500000X1.500000X-0.500000X1.500000X-0.500000X-1.500000X0*%
%ADD32RoundRect,0.050000X-1.100000X-0.650000X1.100000X-0.650000X1.100000X0.650000X-1.100000X0.650000X0*%
%ADD33C,1.400000*%
%ADD34C,1.700000*%
%ADD35RoundRect,0.100000X1.300000X0.250000X-1.300000X0.250000X-1.300000X-0.250000X1.300000X-0.250000X0*%
%ADD36R,0.900000X1.750000*%
%ADD37RoundRect,0.150000X0.587500X0.150000X-0.587500X0.150000X-0.587500X-0.150000X0.587500X-0.150000X0*%
%ADD38C,0.650000*%
%ADD39RoundRect,0.070000X-0.725000X0.300000X-0.725000X-0.300000X0.725000X-0.300000X0.725000X0.300000X0*%
%ADD40RoundRect,0.070000X-0.725000X0.150000X-0.725000X-0.150000X0.725000X-0.150000X0.725000X0.150000X0*%
%ADD41O,2.340000X1.240000*%
%ADD42O,1.740000X1.240000*%
%ADD43R,1.560000X0.650000*%
%ADD44C,3.250000*%
%ADD45R,1.900000X1.900000*%
%ADD46C,1.900000*%
%ADD47C,2.100000*%
%ADD48C,2.600000*%
%ADD49RoundRect,0.250000X0.250000X-0.250000X0.250000X0.250000X-0.250000X0.250000X-0.250000X-0.250000X0*%
%ADD50R,3.500000X2.000000*%
%ADD51RoundRect,0.237500X0.287500X0.237500X-0.287500X0.237500X-0.287500X-0.237500X0.287500X-0.237500X0*%
%ADD52R,1.750000X0.900000*%
%ADD53C,1.300000*%
%ADD54RoundRect,0.050000X2.000000X1.150000X-2.000000X1.150000X-2.000000X-1.150000X2.000000X-1.150000X0*%
%ADD55RoundRect,0.062500X-0.062500X0.337500X-0.062500X-0.337500X0.062500X-0.337500X0.062500X0.337500X0*%
%ADD56RoundRect,0.062500X-0.337500X0.062500X-0.337500X-0.062500X0.337500X-0.062500X0.337500X0.062500X0*%
%ADD57R,2.600000X2.700000*%
%ADD58RoundRect,0.075000X0.075000X-0.700000X0.075000X0.700000X-0.075000X0.700000X-0.075000X-0.700000X0*%
%ADD59RoundRect,0.075000X0.700000X-0.075000X0.700000X0.075000X-0.700000X0.075000X-0.700000X-0.075000X0*%
%ADD60RoundRect,0.100000X0.100000X-0.637500X0.100000X0.637500X-0.100000X0.637500X-0.100000X-0.637500X0*%
%ADD61RoundRect,0.250000X-0.400000X-0.625000X0.400000X-0.625000X0.400000X0.625000X-0.400000X0.625000X0*%
%ADD62RoundRect,0.250001X-0.624999X0.462499X-0.624999X-0.462499X0.624999X-0.462499X0.624999X0.462499X0*%
%ADD63RoundRect,0.150000X-0.825000X-0.150000X0.825000X-0.150000X0.825000X0.150000X-0.825000X0.150000X0*%
%ADD64RoundRect,0.075000X-0.700000X-0.075000X0.700000X-0.075000X0.700000X0.075000X-0.700000X0.075000X0*%
%ADD65RoundRect,0.075000X-0.075000X-0.700000X0.075000X-0.700000X0.075000X0.700000X-0.075000X0.700000X0*%
%ADD66RoundRect,0.225000X-0.225000X-0.375000X0.225000X-0.375000X0.225000X0.375000X-0.225000X0.375000X0*%
%ADD67RoundRect,0.150000X-0.650000X-0.150000X0.650000X-0.150000X0.650000X0.150000X-0.650000X0.150000X0*%
%ADD68RoundRect,0.237500X-0.287500X-0.237500X0.287500X-0.237500X0.287500X0.237500X-0.287500X0.237500X0*%
%ADD69RoundRect,0.050000X-1.000000X-1.300000X1.000000X-1.300000X1.000000X1.300000X-1.000000X1.300000X0*%
%ADD70RoundRect,0.050000X-0.550000X-0.900000X0.550000X-0.900000X0.550000X0.900000X-0.550000X0.900000X0*%
%ADD71C,1.000000*%
%ADD72R,1.600000X0.700000*%
%ADD73R,1.500000X1.200000*%
%ADD74R,2.200000X1.200000*%
%ADD75R,1.500000X1.600000*%
%ADD76RoundRect,0.050000X-1.660000X0.750000X-1.660000X-0.750000X1.660000X-0.750000X1.660000X0.750000X0*%
%ADD77RoundRect,0.075000X-0.662500X-0.075000X0.662500X-0.075000X0.662500X0.075000X-0.662500X0.075000X0*%
%ADD78RoundRect,0.075000X-0.075000X-0.662500X0.075000X-0.662500X0.075000X0.662500X-0.075000X0.662500X0*%
G04 APERTURE END LIST*
D10*
%TO.C,U7*%
X125084800Y-45743100D03*
X126984800Y-45743100D03*
X126034800Y-43868100D03*
%TD*%
D11*
%TO.C,C17*%
X116713000Y-34578400D03*
X116713000Y-32853400D03*
%TD*%
D12*
%TO.C,C62*%
X80821700Y-109067600D03*
X79096700Y-109067600D03*
%TD*%
D13*
%TO.C,R102*%
X225552000Y-34450500D03*
X225552000Y-32625500D03*
%TD*%
D11*
%TO.C,C15*%
X122555000Y-34579500D03*
X122555000Y-32854500D03*
%TD*%
D14*
%TO.C,L4*%
X65227200Y-66813400D03*
X65227200Y-65063400D03*
%TD*%
%TO.C,LED12*%
X75285600Y-147585400D03*
X75285600Y-145835400D03*
%TD*%
D15*
%TO.C,J9*%
X125000000Y-122326400D03*
D16*
X122460000Y-122326400D03*
X125000000Y-119786400D03*
X122460000Y-119786400D03*
X125000000Y-117246400D03*
X122460000Y-117246400D03*
X125000000Y-114706400D03*
X122460000Y-114706400D03*
X125000000Y-112166400D03*
X122460000Y-112166400D03*
X125000000Y-109626400D03*
X122460000Y-109626400D03*
X125000000Y-107086400D03*
X122460000Y-107086400D03*
X125000000Y-104546400D03*
X122460000Y-104546400D03*
X125000000Y-102006400D03*
X122460000Y-102006400D03*
X125000000Y-99466400D03*
X122460000Y-99466400D03*
%TD*%
D17*
%TO.C,R72*%
X198374000Y-124055500D03*
X198374000Y-125880500D03*
%TD*%
D18*
%TO.C,C28*%
X58014700Y-70104000D03*
X59739700Y-70104000D03*
%TD*%
D14*
%TO.C,LED11*%
X71983600Y-147585400D03*
X71983600Y-145835400D03*
%TD*%
D19*
%TO.C,MARK1*%
X54000000Y-144500000D03*
%TD*%
D20*
%TO.C,C21*%
X110185200Y-46076700D03*
X110185200Y-47801700D03*
%TD*%
D11*
%TO.C,C7*%
X66751200Y-35101700D03*
X66751200Y-33376700D03*
%TD*%
D12*
%TO.C,C93*%
X198347500Y-35433000D03*
X196622500Y-35433000D03*
%TD*%
%TO.C,C52*%
X92251700Y-107289600D03*
X90526700Y-107289600D03*
%TD*%
D13*
%TO.C,R186*%
X134010400Y-59891300D03*
X134010400Y-58066300D03*
%TD*%
D11*
%TO.C,C77*%
X97028000Y-141730900D03*
X97028000Y-140005900D03*
%TD*%
D21*
%TO.C,TP13*%
X77470000Y-54406800D03*
%TD*%
D17*
%TO.C,R84*%
X161848800Y-147677500D03*
X161848800Y-149502500D03*
%TD*%
D22*
%TO.C,ESD4*%
X61163200Y-90952000D03*
X61163200Y-93452000D03*
%TD*%
D14*
%TO.C,3V3_PWR*%
X73101200Y-42226200D03*
X73101200Y-40476200D03*
%TD*%
D23*
%TO.C,R6*%
X66446400Y-52578000D03*
X68271400Y-52578000D03*
%TD*%
%TO.C,R224*%
X156567500Y-100025200D03*
X158392500Y-100025200D03*
%TD*%
D18*
%TO.C,C36*%
X69241500Y-64996400D03*
X70966500Y-64996400D03*
%TD*%
D20*
%TO.C,C23*%
X101701600Y-40539500D03*
X101701600Y-42264500D03*
%TD*%
D12*
%TO.C,C91*%
X188949500Y-35560000D03*
X187224500Y-35560000D03*
%TD*%
D24*
%TO.C,LED8*%
X150723600Y-48655000D03*
X150723600Y-50405000D03*
%TD*%
D25*
%TO.C,R203*%
X118055400Y-125171200D03*
X116230400Y-125171200D03*
%TD*%
D26*
%TO.C,KEY6*%
X80000000Y-145600000D03*
X80000000Y-153400000D03*
%TD*%
D21*
%TO.C,TP21*%
X199999600Y-87325200D03*
%TD*%
D15*
%TO.C,AKINA_JTAG1*%
X116987400Y-58262600D03*
D16*
X116987400Y-60802600D03*
X114447400Y-58262600D03*
X114447400Y-60802600D03*
X111907400Y-58262600D03*
X111907400Y-60802600D03*
X109367400Y-58262600D03*
X109367400Y-60802600D03*
X106827400Y-58262600D03*
X106827400Y-60802600D03*
%TD*%
D21*
%TO.C,TP18*%
X144475200Y-62839600D03*
%TD*%
D27*
%TO.C,U6*%
X122351800Y-37961800D03*
X121081800Y-37961800D03*
X119811800Y-37961800D03*
X118541800Y-37961800D03*
X117271800Y-37961800D03*
X116001800Y-37961800D03*
X114731800Y-37961800D03*
X113461800Y-37961800D03*
X113461800Y-42911800D03*
X114731800Y-42911800D03*
X116001800Y-42911800D03*
X117271800Y-42911800D03*
X118541800Y-42911800D03*
X119811800Y-42911800D03*
X121081800Y-42911800D03*
X122351800Y-42911800D03*
%TD*%
D23*
%TO.C,R28*%
X63247900Y-76047600D03*
X65072900Y-76047600D03*
%TD*%
D12*
%TO.C,C80*%
X196188500Y-118491000D03*
X194463500Y-118491000D03*
%TD*%
D13*
%TO.C,R105*%
X225552000Y-54643500D03*
X225552000Y-52818500D03*
%TD*%
D20*
%TO.C,C69*%
X71069200Y-105563500D03*
X71069200Y-107288500D03*
%TD*%
%TO.C,C57*%
X72948800Y-105562400D03*
X72948800Y-107287400D03*
%TD*%
D17*
%TO.C,R40*%
X72288400Y-114251100D03*
X72288400Y-116076100D03*
%TD*%
D23*
%TO.C,R195*%
X109679100Y-103276400D03*
X111504100Y-103276400D03*
%TD*%
%TO.C,R194*%
X109729900Y-107899200D03*
X111554900Y-107899200D03*
%TD*%
D24*
%TO.C,LED5*%
X161036000Y-48655000D03*
X161036000Y-50405000D03*
%TD*%
D11*
%TO.C,C97*%
X233476800Y-93065600D03*
X233476800Y-91340600D03*
%TD*%
D23*
%TO.C,R220*%
X156567500Y-80822800D03*
X158392500Y-80822800D03*
%TD*%
D18*
%TO.C,C83*%
X197761500Y-134677000D03*
X199486500Y-134677000D03*
%TD*%
D17*
%TO.C,R137*%
X75285600Y-141376400D03*
X75285600Y-143201400D03*
%TD*%
%TO.C,R49*%
X146764000Y-130200400D03*
X146764000Y-132025400D03*
%TD*%
%TO.C,R56*%
X117000000Y-129087500D03*
X117000000Y-130912500D03*
%TD*%
D23*
%TO.C,R196*%
X109729900Y-109728000D03*
X111554900Y-109728000D03*
%TD*%
D13*
%TO.C,R36*%
X69642200Y-81784200D03*
X69642200Y-79959200D03*
%TD*%
D18*
%TO.C,C68*%
X85700700Y-79044800D03*
X87425700Y-79044800D03*
%TD*%
%TO.C,C67*%
X92456000Y-77114400D03*
X94181000Y-77114400D03*
%TD*%
D11*
%TO.C,C3*%
X61468000Y-42416900D03*
X61468000Y-40691900D03*
%TD*%
D25*
%TO.C,R151*%
X219149300Y-80924400D03*
X217324300Y-80924400D03*
%TD*%
D23*
%TO.C,R214*%
X156567500Y-91135200D03*
X158392500Y-91135200D03*
%TD*%
%TO.C,R66*%
X186563000Y-120925790D03*
X188388000Y-120925790D03*
%TD*%
D13*
%TO.C,R147*%
X196596000Y-113891700D03*
X196596000Y-112066700D03*
%TD*%
%TO.C,R64*%
X173786800Y-122578500D03*
X173786800Y-120753500D03*
%TD*%
D28*
%TO.C,BOOT_MODE1*%
X90525600Y-112128600D03*
X87985600Y-112128600D03*
X87985600Y-120738600D03*
X90525600Y-120738600D03*
%TD*%
D17*
%TO.C,R156*%
X217678000Y-61419100D03*
X217678000Y-63244100D03*
%TD*%
%TO.C,R32*%
X71882000Y-60301500D03*
X71882000Y-62126500D03*
%TD*%
D29*
%TO.C,C2*%
X58072000Y-42164000D03*
X52672000Y-42164000D03*
%TD*%
D30*
%TO.C,T1*%
X54000000Y-34000000D03*
%TD*%
D17*
%TO.C,R199*%
X66395600Y-141378300D03*
X66395600Y-143203300D03*
%TD*%
D23*
%TO.C,R197*%
X109679100Y-105003600D03*
X111504100Y-105003600D03*
%TD*%
D12*
%TO.C,C71*%
X98652500Y-108915200D03*
X96927500Y-108915200D03*
%TD*%
D25*
%TO.C,R121*%
X230528500Y-137541000D03*
X228703500Y-137541000D03*
%TD*%
D12*
%TO.C,C63*%
X92251700Y-109067600D03*
X90526700Y-109067600D03*
%TD*%
D18*
%TO.C,C26*%
X132131900Y-40132000D03*
X133856900Y-40132000D03*
%TD*%
D15*
%TO.C,J22*%
X224282000Y-133350000D03*
D16*
X226822000Y-133350000D03*
X229362000Y-133350000D03*
X231902000Y-133350000D03*
X234442000Y-133350000D03*
X236982000Y-133350000D03*
%TD*%
D26*
%TO.C,KEY7*%
X85000000Y-145600000D03*
X85000000Y-153400000D03*
%TD*%
D23*
%TO.C,R219*%
X156567500Y-82499200D03*
X158392500Y-82499200D03*
%TD*%
D11*
%TO.C,C30*%
X61518800Y-61314500D03*
X61518800Y-59589500D03*
%TD*%
D25*
%TO.C,R74*%
X199536500Y-133000600D03*
X197711500Y-133000600D03*
%TD*%
D14*
%TO.C,LED2*%
X158546800Y-153327700D03*
X158546800Y-151577700D03*
%TD*%
D13*
%TO.C,R94*%
X137134600Y-119532400D03*
X137134600Y-117707400D03*
%TD*%
D15*
%TO.C,J13*%
X233522600Y-100091000D03*
D16*
X236062600Y-100091000D03*
X233522600Y-102631000D03*
X236062600Y-102631000D03*
X233522600Y-105171000D03*
X236062600Y-105171000D03*
%TD*%
D31*
%TO.C,POWER1*%
X52102000Y-64079000D03*
X54102000Y-64079000D03*
X56102000Y-64079000D03*
X52102000Y-57079000D03*
X54102000Y-57079000D03*
X56102000Y-57079000D03*
%TD*%
D20*
%TO.C,C31*%
X65227200Y-68835100D03*
X65227200Y-70560100D03*
%TD*%
D25*
%TO.C,R169*%
X195423800Y-85293200D03*
X193598800Y-85293200D03*
%TD*%
D23*
%TO.C,R7*%
X62739900Y-52578000D03*
X64564900Y-52578000D03*
%TD*%
D25*
%TO.C,R178*%
X133549400Y-99364800D03*
X131724400Y-99364800D03*
%TD*%
D17*
%TO.C,R16*%
X110921800Y-32804500D03*
X110921800Y-34629500D03*
%TD*%
D20*
%TO.C,C64*%
X103835200Y-97130700D03*
X103835200Y-98855700D03*
%TD*%
D15*
%TO.C,J21*%
X224282000Y-126365000D03*
D16*
X226822000Y-126365000D03*
X229362000Y-126365000D03*
X231902000Y-126365000D03*
X234442000Y-126365000D03*
X236982000Y-126365000D03*
%TD*%
D13*
%TO.C,R86*%
X157632400Y-54506500D03*
X157632400Y-52681500D03*
%TD*%
%TO.C,R37*%
X73401400Y-81784200D03*
X73401400Y-79959200D03*
%TD*%
D12*
%TO.C,C86*%
X205891300Y-135991600D03*
X204166300Y-135991600D03*
%TD*%
D23*
%TO.C,R207*%
X156567500Y-79146400D03*
X158392500Y-79146400D03*
%TD*%
D15*
%TO.C,J28*%
X99771200Y-121462800D03*
D16*
X99771200Y-124002800D03*
X99771200Y-126542800D03*
%TD*%
D17*
%TO.C,R155*%
X220776800Y-57558300D03*
X220776800Y-59383300D03*
%TD*%
D23*
%TO.C,R215*%
X156567500Y-89357200D03*
X158392500Y-89357200D03*
%TD*%
D21*
%TO.C,TP4*%
X99822000Y-38150800D03*
%TD*%
%TO.C,TP22*%
X108305600Y-41249600D03*
%TD*%
D20*
%TO.C,C14*%
X82092800Y-50597900D03*
X82092800Y-52322900D03*
%TD*%
D12*
%TO.C,C95*%
X207745500Y-35433000D03*
X206020500Y-35433000D03*
%TD*%
D17*
%TO.C,R134*%
X69900800Y-141376400D03*
X69900800Y-143201400D03*
%TD*%
D25*
%TO.C,R179*%
X133549400Y-97586800D03*
X131724400Y-97586800D03*
%TD*%
D23*
%TO.C,R127*%
X196572500Y-32385000D03*
X198397500Y-32385000D03*
%TD*%
D19*
%TO.C,MARK4*%
X140000000Y-34000000D03*
%TD*%
D17*
%TO.C,R14*%
X86512400Y-32920300D03*
X86512400Y-34745300D03*
%TD*%
D32*
%TO.C,KEY5*%
X210500000Y-146000000D03*
X210500000Y-149700000D03*
X210500000Y-152500000D03*
X221500000Y-152500000D03*
X221500000Y-149700000D03*
X221500000Y-146000000D03*
%TD*%
D23*
%TO.C,R79*%
X189181100Y-147116800D03*
X191006100Y-147116800D03*
%TD*%
%TO.C,R227*%
X156567500Y-94691200D03*
X158392500Y-94691200D03*
%TD*%
%TO.C,R54*%
X124866500Y-151485600D03*
X126691500Y-151485600D03*
%TD*%
D15*
%TO.C,J29*%
X167655000Y-41559400D03*
D16*
X167655000Y-39019400D03*
X170195000Y-41559400D03*
X170195000Y-39019400D03*
X172735000Y-41559400D03*
X172735000Y-39019400D03*
%TD*%
D15*
%TO.C,J8*%
X228244400Y-110083600D03*
D16*
X225704400Y-110083600D03*
X228244400Y-107543600D03*
X225704400Y-107543600D03*
X228244400Y-105003600D03*
X225704400Y-105003600D03*
X228244400Y-102463600D03*
X225704400Y-102463600D03*
X228244400Y-99923600D03*
X225704400Y-99923600D03*
X228244400Y-97383600D03*
X225704400Y-97383600D03*
X228244400Y-94843600D03*
X225704400Y-94843600D03*
X228244400Y-92303600D03*
X225704400Y-92303600D03*
X228244400Y-89763600D03*
X225704400Y-89763600D03*
X228244400Y-87223600D03*
X225704400Y-87223600D03*
%TD*%
D22*
%TO.C,ESD2*%
X61112400Y-77998000D03*
X61112400Y-80498000D03*
%TD*%
D15*
%TO.C,J26*%
X203073000Y-33655000D03*
D16*
X203073000Y-36195000D03*
X203073000Y-38735000D03*
%TD*%
D25*
%TO.C,R119*%
X235862500Y-130556000D03*
X234037500Y-130556000D03*
%TD*%
D26*
%TO.C,AKINA_RESET1*%
X200000000Y-153400000D03*
X200000000Y-145600000D03*
%TD*%
D17*
%TO.C,R20*%
X106629200Y-36628700D03*
X106629200Y-38453700D03*
%TD*%
D12*
%TO.C,C81*%
X196188500Y-120269000D03*
X194463500Y-120269000D03*
%TD*%
D13*
%TO.C,R90*%
X140356253Y-119452053D03*
X140356253Y-117627053D03*
%TD*%
D33*
%TO.C,BTB100x1*%
X210000000Y-109675000D03*
D34*
X210000000Y-65775000D03*
D33*
X140000000Y-109725000D03*
D34*
X140000000Y-65775000D03*
D35*
X211950000Y-107325000D03*
X211950000Y-106525000D03*
X211950000Y-105725000D03*
X211950000Y-104925000D03*
X211950000Y-104125000D03*
X211950000Y-103325000D03*
X211950000Y-102525000D03*
X211950000Y-101725000D03*
X211950000Y-100925000D03*
X211950000Y-100125000D03*
X211950000Y-99325000D03*
X211950000Y-98525000D03*
X211950000Y-97725000D03*
X211950000Y-96925000D03*
X211950000Y-96125000D03*
X211950000Y-95325000D03*
X211950000Y-94525000D03*
X211950000Y-93725000D03*
X211950000Y-92925000D03*
X211950000Y-92125000D03*
X211950000Y-91325000D03*
X211950000Y-90525000D03*
X211950000Y-89725000D03*
X211950000Y-88925000D03*
X211950000Y-88125000D03*
X211950000Y-87325000D03*
X211950000Y-86525000D03*
X211950000Y-85725000D03*
X211950000Y-84925000D03*
X211950000Y-84125000D03*
X211950000Y-83325000D03*
X211950000Y-82525000D03*
X211950000Y-81725000D03*
X211950000Y-80925000D03*
X211950000Y-80125000D03*
X211950000Y-79325000D03*
X211950000Y-78525000D03*
X211950000Y-77725000D03*
X211950000Y-76925000D03*
X211950000Y-76125000D03*
X211950000Y-75325000D03*
X211950000Y-74525000D03*
X211950000Y-73725000D03*
X211950000Y-72925000D03*
X211950000Y-72125000D03*
X211950000Y-71325000D03*
X211950000Y-70525000D03*
X211950000Y-69725000D03*
X211950000Y-68925000D03*
X211950000Y-68125000D03*
X208050000Y-107325000D03*
X208050000Y-106525000D03*
X208050000Y-105725000D03*
X208050000Y-104925000D03*
X208050000Y-104125000D03*
X208050000Y-103325000D03*
X208050000Y-102525000D03*
X208050000Y-101725000D03*
X208050000Y-100925000D03*
X208050000Y-100125000D03*
X208050000Y-99325000D03*
X208050000Y-98525000D03*
X208050000Y-97725000D03*
X208050000Y-96925000D03*
X208050000Y-96125000D03*
X208050000Y-95325000D03*
X208050000Y-94525000D03*
X208050000Y-93725000D03*
X208050000Y-92925000D03*
X208050000Y-92125000D03*
X208050000Y-91325000D03*
X208050000Y-90525000D03*
X208050000Y-89725000D03*
X208050000Y-88925000D03*
X208050000Y-88125000D03*
X208050000Y-87325000D03*
X208050000Y-86525000D03*
X208050000Y-85725000D03*
X208050000Y-84925000D03*
X208050000Y-84125000D03*
X208050000Y-83325000D03*
X208050000Y-82525000D03*
X208050000Y-81725000D03*
X208050000Y-80925000D03*
X208050000Y-80125000D03*
X208050000Y-79325000D03*
X208050000Y-78525000D03*
X208050000Y-77725000D03*
X208050000Y-76925000D03*
X208050000Y-76125000D03*
X208050000Y-75325000D03*
X208050000Y-74525000D03*
X208050000Y-73725000D03*
X208050000Y-72925000D03*
X208050000Y-72125000D03*
X208050000Y-71325000D03*
X208050000Y-70525000D03*
X208050000Y-69725000D03*
X208050000Y-68925000D03*
X208050000Y-68125000D03*
X141900000Y-107325000D03*
X141900000Y-106525000D03*
X141900000Y-105725000D03*
X141900000Y-104925000D03*
X141900000Y-104125000D03*
X141900000Y-103325000D03*
X141900000Y-102525000D03*
X141900000Y-101725000D03*
X141900000Y-100925000D03*
X141900000Y-100125000D03*
X141900000Y-99325000D03*
X141900000Y-98525000D03*
X141900000Y-97725000D03*
X141900000Y-96925000D03*
X141900000Y-96125000D03*
X141900000Y-95325000D03*
X141900000Y-94525000D03*
X141900000Y-93725000D03*
X141900000Y-92925000D03*
X141900000Y-92125000D03*
X141900000Y-91325000D03*
X141900000Y-90525000D03*
X141900000Y-89725000D03*
X141900000Y-88925000D03*
X141900000Y-88125000D03*
X141900000Y-87325000D03*
X141900000Y-86525000D03*
X141900000Y-85725000D03*
X141900000Y-84925000D03*
X141900000Y-84125000D03*
X141900000Y-83325000D03*
X141900000Y-82525000D03*
X141900000Y-81725000D03*
X141900000Y-80925000D03*
X141900000Y-80125000D03*
X141900000Y-79325000D03*
X141900000Y-78525000D03*
X141900000Y-77725000D03*
X141900000Y-76925000D03*
X141900000Y-76125000D03*
X141900000Y-75325000D03*
X141900000Y-74525000D03*
X141900000Y-73725000D03*
X141900000Y-72925000D03*
X141900000Y-72125000D03*
X141900000Y-71325000D03*
X141900000Y-70525000D03*
X141900000Y-69725000D03*
X141900000Y-68925000D03*
X141900000Y-68125000D03*
X138100000Y-107325000D03*
X138100000Y-106525000D03*
X138100000Y-105725000D03*
X138100000Y-104925000D03*
X138100000Y-104125000D03*
X138100000Y-103325000D03*
X138100000Y-102525000D03*
X138100000Y-101725000D03*
X138100000Y-100925000D03*
X138100000Y-100125000D03*
X138100000Y-99325000D03*
X138100000Y-98525000D03*
X138100000Y-97725000D03*
X138100000Y-96925000D03*
X138100000Y-96125000D03*
X138100000Y-95325000D03*
X138100000Y-94525000D03*
X138100000Y-93725000D03*
X138100000Y-92925000D03*
X138100000Y-92125000D03*
X138100000Y-91325000D03*
X138100000Y-90525000D03*
X138100000Y-89725000D03*
X138100000Y-88925000D03*
X138100000Y-88125000D03*
X138100000Y-87325000D03*
X138100000Y-86525000D03*
X138100000Y-85725000D03*
X138100000Y-84925000D03*
X138100000Y-84125000D03*
X138100000Y-83325000D03*
X138100000Y-82525000D03*
X138100000Y-81725000D03*
X138100000Y-80925000D03*
X138100000Y-80125000D03*
X138100000Y-79325000D03*
X138100000Y-78525000D03*
X138100000Y-77725000D03*
X138100000Y-76925000D03*
X138100000Y-76125000D03*
X138100000Y-75325000D03*
X138100000Y-74525000D03*
X138100000Y-73725000D03*
X138100000Y-72925000D03*
X138100000Y-72125000D03*
X138100000Y-71325000D03*
X138100000Y-70525000D03*
X138100000Y-69725000D03*
X138100000Y-68925000D03*
X138100000Y-68125000D03*
%TD*%
D23*
%TO.C,R67*%
X186563000Y-122830790D03*
X188388000Y-122830790D03*
%TD*%
D12*
%TO.C,C78*%
X91286500Y-123494800D03*
X89561500Y-123494800D03*
%TD*%
D21*
%TO.C,TP16*%
X100787200Y-47853600D03*
%TD*%
D25*
%TO.C,R114*%
X229385500Y-123571000D03*
X227560500Y-123571000D03*
%TD*%
D12*
%TO.C,C35*%
X76757700Y-58369200D03*
X75032700Y-58369200D03*
%TD*%
%TO.C,C19*%
X105459700Y-44145200D03*
X103734700Y-44145200D03*
%TD*%
D11*
%TO.C,C5*%
X61468000Y-50393600D03*
X61468000Y-48668600D03*
%TD*%
D12*
%TO.C,C61*%
X87323000Y-109067600D03*
X85598000Y-109067600D03*
%TD*%
D25*
%TO.C,R70*%
X188364500Y-124608790D03*
X186539500Y-124608790D03*
%TD*%
D30*
%TO.C,T4*%
X235983200Y-150971600D03*
%TD*%
D25*
%TO.C,R116*%
X238021500Y-123571000D03*
X236196500Y-123571000D03*
%TD*%
D18*
%TO.C,C82*%
X192427500Y-137267800D03*
X194152500Y-137267800D03*
%TD*%
D36*
%TO.C,X2*%
X71031400Y-70205600D03*
X71031400Y-67305600D03*
X69481400Y-67305600D03*
X69481400Y-70205600D03*
%TD*%
D17*
%TO.C,R22*%
X113766600Y-32804500D03*
X113766600Y-34629500D03*
%TD*%
D37*
%TO.C,Q1*%
X67637900Y-153146800D03*
X67637900Y-151246800D03*
X65762900Y-152196800D03*
%TD*%
D18*
%TO.C,C56*%
X85700700Y-80873600D03*
X87425700Y-80873600D03*
%TD*%
D38*
%TO.C,USB2*%
X56500000Y-87160000D03*
X56500000Y-92875000D03*
D39*
X57945000Y-86800000D03*
X57945000Y-87600000D03*
D40*
X57945000Y-88250000D03*
X57945000Y-88750000D03*
X57945000Y-89250000D03*
X57945000Y-89750000D03*
X57945000Y-90250000D03*
X57945000Y-90750000D03*
X57945000Y-91250000D03*
X57945000Y-91750000D03*
D39*
X57945000Y-92400000D03*
X57945000Y-93200000D03*
D41*
X57030000Y-85730000D03*
X57030000Y-94275000D03*
D42*
X52850000Y-85730000D03*
X52850000Y-94275000D03*
%TD*%
D25*
%TO.C,R113*%
X225067500Y-123571000D03*
X223242500Y-123571000D03*
%TD*%
D24*
%TO.C,LED7*%
X154178000Y-48655000D03*
X154178000Y-50405000D03*
%TD*%
D12*
%TO.C,C70*%
X102462500Y-107035600D03*
X100737500Y-107035600D03*
%TD*%
D10*
%TO.C,U8*%
X131993600Y-45743100D03*
X133893600Y-45743100D03*
X132943600Y-43868100D03*
%TD*%
D14*
%TO.C,LED3*%
X161848800Y-153337200D03*
X161848800Y-151587200D03*
%TD*%
D23*
%TO.C,R222*%
X156567500Y-103682800D03*
X158392500Y-103682800D03*
%TD*%
D15*
%TO.C,J14*%
X219964000Y-33792000D03*
D16*
X219964000Y-36332000D03*
X219964000Y-38872000D03*
X219964000Y-41412000D03*
%TD*%
D13*
%TO.C,R95*%
X132054600Y-119507000D03*
X132054600Y-117682000D03*
%TD*%
D26*
%TO.C,KEY9*%
X95000000Y-145600000D03*
X95000000Y-153400000D03*
%TD*%
D23*
%TO.C,R141*%
X98249100Y-148488400D03*
X100074100Y-148488400D03*
%TD*%
D13*
%TO.C,R131*%
X102671200Y-122375300D03*
X102671200Y-120550300D03*
%TD*%
D17*
%TO.C,R43*%
X95707200Y-115165500D03*
X95707200Y-116990500D03*
%TD*%
D23*
%TO.C,R213*%
X156567500Y-92913200D03*
X158392500Y-92913200D03*
%TD*%
D43*
%TO.C,U2*%
X63724800Y-48478400D03*
X63724800Y-49428400D03*
X63724800Y-50378400D03*
X66424800Y-50378400D03*
X66424800Y-48478400D03*
%TD*%
D13*
%TO.C,R45*%
X84175600Y-113180500D03*
X84175600Y-111355500D03*
%TD*%
D17*
%TO.C,R50*%
X140764000Y-130200400D03*
X140764000Y-132025400D03*
%TD*%
D15*
%TO.C,J12*%
X236270800Y-81686400D03*
D16*
X233730800Y-81686400D03*
X236270800Y-79146400D03*
X233730800Y-79146400D03*
X236270800Y-76606400D03*
X233730800Y-76606400D03*
X236270800Y-74066400D03*
X233730800Y-74066400D03*
X236270800Y-71526400D03*
X233730800Y-71526400D03*
X236270800Y-68986400D03*
X233730800Y-68986400D03*
X236270800Y-66446400D03*
X233730800Y-66446400D03*
X236270800Y-63906400D03*
X233730800Y-63906400D03*
X236270800Y-61366400D03*
X233730800Y-61366400D03*
X236270800Y-58826400D03*
X233730800Y-58826400D03*
%TD*%
D23*
%TO.C,R4*%
X66448300Y-44348400D03*
X68273300Y-44348400D03*
%TD*%
D11*
%TO.C,C49*%
X74803000Y-93928100D03*
X74803000Y-92203100D03*
%TD*%
D21*
%TO.C,TP20*%
X202742800Y-65735200D03*
%TD*%
D13*
%TO.C,R171*%
X169824400Y-113993300D03*
X169824400Y-112168300D03*
%TD*%
D25*
%TO.C,R31*%
X71016500Y-72464000D03*
X69191500Y-72464000D03*
%TD*%
D13*
%TO.C,R181*%
X126390400Y-59891300D03*
X126390400Y-58066300D03*
%TD*%
D44*
%TO.C,ETH2*%
X107730000Y-144350000D03*
X119160000Y-144350000D03*
D45*
X109000000Y-138000000D03*
D46*
X110270000Y-135460000D03*
X111540000Y-138000000D03*
X112810000Y-135460000D03*
X114080000Y-138000000D03*
X115350000Y-135460000D03*
X116620000Y-138000000D03*
X117890000Y-135460000D03*
D47*
X106820000Y-149250000D03*
X109360000Y-149250000D03*
X117530000Y-149250000D03*
X120070000Y-149250000D03*
D48*
X105700000Y-141300000D03*
X121190000Y-141300000D03*
%TD*%
D23*
%TO.C,R5*%
X62790700Y-44348400D03*
X64615700Y-44348400D03*
%TD*%
D17*
%TO.C,R13*%
X88696800Y-32920300D03*
X88696800Y-34745300D03*
%TD*%
D49*
%TO.C,ESD1*%
X61112400Y-76078400D03*
X61112400Y-73578400D03*
%TD*%
D21*
%TO.C,TP26*%
X138074400Y-63042800D03*
%TD*%
D14*
%TO.C,LED9*%
X65379600Y-147574000D03*
X65379600Y-145824000D03*
%TD*%
D50*
%TO.C,X1*%
X132764600Y-32429800D03*
X126264600Y-32429800D03*
X126264600Y-36629800D03*
X132764600Y-36629800D03*
%TD*%
D25*
%TO.C,R47*%
X132025500Y-148336000D03*
X130200500Y-148336000D03*
%TD*%
D13*
%TO.C,R164*%
X215493600Y-59383300D03*
X215493600Y-57558300D03*
%TD*%
D17*
%TO.C,R161*%
X177698400Y-112168300D03*
X177698400Y-113993300D03*
%TD*%
%TO.C,R136*%
X73507600Y-141376400D03*
X73507600Y-143201400D03*
%TD*%
%TO.C,R124*%
X181456500Y-35521500D03*
X181456500Y-37346500D03*
%TD*%
D23*
%TO.C,R1*%
X60504700Y-34950400D03*
X62329700Y-34950400D03*
%TD*%
%TO.C,R223*%
X156567500Y-101854000D03*
X158392500Y-101854000D03*
%TD*%
D13*
%TO.C,R146*%
X193598800Y-113942500D03*
X193598800Y-112117500D03*
%TD*%
D21*
%TO.C,TP5*%
X91846400Y-32918400D03*
%TD*%
D17*
%TO.C,R11*%
X95453200Y-32920300D03*
X95453200Y-34745300D03*
%TD*%
D21*
%TO.C,TP6*%
X84632800Y-54305200D03*
%TD*%
D20*
%TO.C,C43*%
X88290400Y-72441900D03*
X88290400Y-74166900D03*
%TD*%
D25*
%TO.C,R150*%
X219149300Y-82753200D03*
X217324300Y-82753200D03*
%TD*%
D13*
%TO.C,R92*%
X130073400Y-119507000D03*
X130073400Y-117682000D03*
%TD*%
D12*
%TO.C,C89*%
X179525000Y-35545000D03*
X177800000Y-35545000D03*
%TD*%
D23*
%TO.C,R189*%
X109729900Y-118567200D03*
X111554900Y-118567200D03*
%TD*%
D13*
%TO.C,R144*%
X187604400Y-113993300D03*
X187604400Y-112168300D03*
%TD*%
D12*
%TO.C,C87*%
X205891300Y-134162800D03*
X204166300Y-134162800D03*
%TD*%
D13*
%TO.C,R101*%
X217170000Y-42451500D03*
X217170000Y-40626500D03*
%TD*%
D15*
%TO.C,ST_JTAG1*%
X102463600Y-58267600D03*
D16*
X102463600Y-60807600D03*
X99923600Y-58267600D03*
X99923600Y-60807600D03*
X97383600Y-58267600D03*
X97383600Y-60807600D03*
X94843600Y-58267600D03*
X94843600Y-60807600D03*
X92303600Y-58267600D03*
X92303600Y-60807600D03*
%TD*%
D20*
%TO.C,C42*%
X88290400Y-68835100D03*
X88290400Y-70560100D03*
%TD*%
D25*
%TO.C,R68*%
X188364500Y-128418790D03*
X186539500Y-128418790D03*
%TD*%
%TO.C,R167*%
X195423800Y-88717600D03*
X193598800Y-88717600D03*
%TD*%
D17*
%TO.C,R10*%
X97536000Y-32920300D03*
X97536000Y-34745300D03*
%TD*%
D13*
%TO.C,R148*%
X199593200Y-113839000D03*
X199593200Y-112014000D03*
%TD*%
D23*
%TO.C,R221*%
X156567500Y-105511600D03*
X158392500Y-105511600D03*
%TD*%
D15*
%TO.C,J7*%
X228219000Y-81686400D03*
D16*
X225679000Y-81686400D03*
X228219000Y-79146400D03*
X225679000Y-79146400D03*
X228219000Y-76606400D03*
X225679000Y-76606400D03*
X228219000Y-74066400D03*
X225679000Y-74066400D03*
X228219000Y-71526400D03*
X225679000Y-71526400D03*
X228219000Y-68986400D03*
X225679000Y-68986400D03*
X228219000Y-66446400D03*
X225679000Y-66446400D03*
X228219000Y-63906400D03*
X225679000Y-63906400D03*
X228219000Y-61366400D03*
X225679000Y-61366400D03*
X228219000Y-58826400D03*
X225679000Y-58826400D03*
%TD*%
D51*
%TO.C,L2*%
X59752200Y-68224400D03*
X58002200Y-68224400D03*
%TD*%
D13*
%TO.C,R93*%
X142235853Y-119452053D03*
X142235853Y-117627053D03*
%TD*%
D14*
%TO.C,1V8_PWR*%
X73101200Y-50151000D03*
X73101200Y-48401000D03*
%TD*%
D15*
%TO.C,J25*%
X193675000Y-33782000D03*
D16*
X193675000Y-36322000D03*
X193675000Y-38862000D03*
%TD*%
D17*
%TO.C,R57*%
X111000000Y-129087500D03*
X111000000Y-130912500D03*
%TD*%
D25*
%TO.C,R191*%
X111504100Y-98552000D03*
X109679100Y-98552000D03*
%TD*%
D13*
%TO.C,R182*%
X72999600Y-123899300D03*
X72999600Y-122074300D03*
%TD*%
D52*
%TO.C,X5*%
X94718800Y-139941000D03*
X91818800Y-139941000D03*
X91818800Y-141491000D03*
X94718800Y-141491000D03*
%TD*%
D23*
%TO.C,R65*%
X186539500Y-119020790D03*
X188364500Y-119020790D03*
%TD*%
D15*
%TO.C,J30*%
X172705000Y-32354600D03*
D16*
X172705000Y-34894600D03*
X170165000Y-32354600D03*
X170165000Y-34894600D03*
X167625000Y-32354600D03*
X167625000Y-34894600D03*
%TD*%
D23*
%TO.C,R78*%
X189181100Y-150215600D03*
X191006100Y-150215600D03*
%TD*%
D13*
%TO.C,R103*%
X225552000Y-42324500D03*
X225552000Y-40499500D03*
%TD*%
D25*
%TO.C,R73*%
X199536500Y-131324200D03*
X197711500Y-131324200D03*
%TD*%
D13*
%TO.C,R89*%
X147624800Y-54457600D03*
X147624800Y-52632600D03*
%TD*%
%TO.C,R39*%
X75281000Y-81784200D03*
X75281000Y-79959200D03*
%TD*%
D21*
%TO.C,TP30*%
X203708000Y-149402800D03*
%TD*%
D23*
%TO.C,R123*%
X177750000Y-32370000D03*
X179575000Y-32370000D03*
%TD*%
D11*
%TO.C,C72*%
X102006400Y-89508500D03*
X102006400Y-87783500D03*
%TD*%
D20*
%TO.C,C41*%
X90373200Y-68835100D03*
X90373200Y-70560100D03*
%TD*%
D15*
%TO.C,J20*%
X224282000Y-119380000D03*
D16*
X226822000Y-119380000D03*
X229362000Y-119380000D03*
X231902000Y-119380000D03*
X234442000Y-119380000D03*
X236982000Y-119380000D03*
%TD*%
D13*
%TO.C,R44*%
X95707200Y-113178600D03*
X95707200Y-111353600D03*
%TD*%
D17*
%TO.C,R2*%
X70916800Y-40438700D03*
X70916800Y-42263700D03*
%TD*%
D23*
%TO.C,R175*%
X150965965Y-109155665D03*
X152790965Y-109155665D03*
%TD*%
D11*
%TO.C,C10*%
X91389200Y-41350100D03*
X91389200Y-39625100D03*
%TD*%
D12*
%TO.C,C88*%
X179525000Y-38720000D03*
X177800000Y-38720000D03*
%TD*%
D11*
%TO.C,C96*%
X102666800Y-127280700D03*
X102666800Y-125555700D03*
%TD*%
D13*
%TO.C,R33*%
X68732400Y-62126500D03*
X68732400Y-60301500D03*
%TD*%
D23*
%TO.C,R99*%
X233834300Y-113385600D03*
X235659300Y-113385600D03*
%TD*%
D21*
%TO.C,TP25*%
X236067600Y-92100400D03*
%TD*%
D26*
%TO.C,KEY2*%
X180000000Y-145600000D03*
X180000000Y-153400000D03*
%TD*%
D13*
%TO.C,R59*%
X86309200Y-141780900D03*
X86309200Y-139955900D03*
%TD*%
D15*
%TO.C,J17*%
X219964000Y-46126400D03*
D16*
X219964000Y-48666400D03*
X219964000Y-51206400D03*
X219964000Y-53746400D03*
%TD*%
D17*
%TO.C,R160*%
X180746400Y-112168300D03*
X180746400Y-113993300D03*
%TD*%
D21*
%TO.C,TP11*%
X70662800Y-56388000D03*
%TD*%
D11*
%TO.C,C16*%
X119557800Y-34579500D03*
X119557800Y-32854500D03*
%TD*%
D21*
%TO.C,TP3*%
X75285600Y-33223200D03*
%TD*%
D12*
%TO.C,C92*%
X198347500Y-38354000D03*
X196622500Y-38354000D03*
%TD*%
D28*
%TO.C,BOOT_MODE2*%
X176580800Y-125539800D03*
X174040800Y-125539800D03*
X174040800Y-134149800D03*
X176580800Y-134149800D03*
%TD*%
D12*
%TO.C,C100*%
X148538100Y-50647600D03*
X146813100Y-50647600D03*
%TD*%
D15*
%TO.C,SCREEN1*%
X211480400Y-138430000D03*
D16*
X211480400Y-135890000D03*
X211480400Y-133350000D03*
X211480400Y-130810000D03*
X211480400Y-128270000D03*
X211480400Y-125730000D03*
X211480400Y-123190000D03*
X211480400Y-120650000D03*
%TD*%
D12*
%TO.C,C18*%
X105459700Y-42316400D03*
X103734700Y-42316400D03*
%TD*%
D23*
%TO.C,R208*%
X156567500Y-77419200D03*
X158392500Y-77419200D03*
%TD*%
D12*
%TO.C,C50*%
X87324100Y-107340400D03*
X85599100Y-107340400D03*
%TD*%
D25*
%TO.C,R177*%
X133549400Y-101092000D03*
X131724400Y-101092000D03*
%TD*%
D17*
%TO.C,R41*%
X71094600Y-99976300D03*
X71094600Y-101801300D03*
%TD*%
D43*
%TO.C,U3*%
X69160400Y-33187600D03*
X69160400Y-34137600D03*
X69160400Y-35087600D03*
X71860400Y-35087600D03*
X71860400Y-33187600D03*
%TD*%
D20*
%TO.C,C11*%
X88493600Y-50597900D03*
X88493600Y-52322900D03*
%TD*%
D25*
%TO.C,R149*%
X219149300Y-84582000D03*
X217324300Y-84582000D03*
%TD*%
D21*
%TO.C,TP23*%
X115925600Y-49479200D03*
%TD*%
%TO.C,TP8*%
X101193600Y-32918400D03*
%TD*%
D17*
%TO.C,R82*%
X155194000Y-147675600D03*
X155194000Y-149500600D03*
%TD*%
D15*
%TO.C,J3*%
X54000000Y-100000000D03*
D16*
X56540000Y-100000000D03*
X54000000Y-102540000D03*
X56540000Y-102540000D03*
X54000000Y-105080000D03*
X56540000Y-105080000D03*
X54000000Y-107620000D03*
X56540000Y-107620000D03*
X54000000Y-110160000D03*
X56540000Y-110160000D03*
X54000000Y-112700000D03*
X56540000Y-112700000D03*
X54000000Y-115240000D03*
X56540000Y-115240000D03*
X54000000Y-117780000D03*
X56540000Y-117780000D03*
X54000000Y-120320000D03*
X56540000Y-120320000D03*
X54000000Y-122860000D03*
X56540000Y-122860000D03*
%TD*%
D13*
%TO.C,R170*%
X172872400Y-113991400D03*
X172872400Y-112166400D03*
%TD*%
D17*
%TO.C,R48*%
X137764000Y-130200400D03*
X137764000Y-132025400D03*
%TD*%
D25*
%TO.C,R166*%
X195425700Y-90424000D03*
X193600700Y-90424000D03*
%TD*%
D21*
%TO.C,TP2*%
X77063600Y-38658800D03*
%TD*%
D19*
%TO.C,MARK3*%
X236000000Y-41000000D03*
%TD*%
D25*
%TO.C,R118*%
X230528500Y-130556000D03*
X228703500Y-130556000D03*
%TD*%
D23*
%TO.C,R140*%
X98249100Y-146558000D03*
X100074100Y-146558000D03*
%TD*%
D13*
%TO.C,R91*%
X135255000Y-119532400D03*
X135255000Y-117707400D03*
%TD*%
D23*
%TO.C,R173*%
X150964065Y-112813265D03*
X152789065Y-112813265D03*
%TD*%
%TO.C,R77*%
X189181100Y-153314400D03*
X191006100Y-153314400D03*
%TD*%
D17*
%TO.C,R96*%
X233476800Y-87377900D03*
X233476800Y-89202900D03*
%TD*%
D12*
%TO.C,C101*%
X148538100Y-48615600D03*
X146813100Y-48615600D03*
%TD*%
D53*
%TO.C,BAT1*%
X158864400Y-39065200D03*
X151364400Y-39065200D03*
D54*
X162964400Y-39065200D03*
X146964400Y-39065200D03*
%TD*%
D23*
%TO.C,R8*%
X71071100Y-36931600D03*
X72896100Y-36931600D03*
%TD*%
D20*
%TO.C,C53*%
X101955600Y-97129600D03*
X101955600Y-98854600D03*
%TD*%
D13*
%TO.C,R100*%
X217170000Y-34577500D03*
X217170000Y-32752500D03*
%TD*%
%TO.C,R107*%
X217170000Y-53134900D03*
X217170000Y-51309900D03*
%TD*%
D17*
%TO.C,R83*%
X158546800Y-147677500D03*
X158546800Y-149502500D03*
%TD*%
D49*
%TO.C,ESD3*%
X61163200Y-89083200D03*
X61163200Y-86583200D03*
%TD*%
D11*
%TO.C,C74*%
X168605200Y-140854300D03*
X168605200Y-139129300D03*
%TD*%
D26*
%TO.C,KEY1*%
X185000000Y-145600000D03*
X185000000Y-153400000D03*
%TD*%
D13*
%TO.C,R108*%
X233553000Y-46769500D03*
X233553000Y-44944500D03*
%TD*%
D20*
%TO.C,C54*%
X102006400Y-91745900D03*
X102006400Y-93470900D03*
%TD*%
D55*
%TO.C,U16*%
X194524000Y-131267200D03*
X194024000Y-131267200D03*
X193524000Y-131267200D03*
X193024000Y-131267200D03*
X192524000Y-131267200D03*
X192024000Y-131267200D03*
D56*
X191299000Y-131992200D03*
X191299000Y-132492200D03*
X191299000Y-132992200D03*
X191299000Y-133492200D03*
X191299000Y-133992200D03*
X191299000Y-134492200D03*
D55*
X192024000Y-135217200D03*
X192524000Y-135217200D03*
X193024000Y-135217200D03*
X193524000Y-135217200D03*
X194024000Y-135217200D03*
X194524000Y-135217200D03*
D56*
X195249000Y-134492200D03*
X195249000Y-133992200D03*
X195249000Y-133492200D03*
X195249000Y-132992200D03*
X195249000Y-132492200D03*
X195249000Y-131992200D03*
D57*
X193274000Y-133242200D03*
%TD*%
D17*
%TO.C,R55*%
X108000000Y-129087500D03*
X108000000Y-130912500D03*
%TD*%
D21*
%TO.C,TP19*%
X211988400Y-62992000D03*
%TD*%
D17*
%TO.C,R21*%
X108915200Y-36628700D03*
X108915200Y-38453700D03*
%TD*%
%TO.C,R15*%
X80111600Y-50547900D03*
X80111600Y-52372900D03*
%TD*%
D58*
%TO.C,U14*%
X85250000Y-137175000D03*
X85750000Y-137175000D03*
X86250000Y-137175000D03*
X86750000Y-137175000D03*
X87250000Y-137175000D03*
X87750000Y-137175000D03*
X88250000Y-137175000D03*
X88750000Y-137175000D03*
X89250000Y-137175000D03*
X89750000Y-137175000D03*
X90250000Y-137175000D03*
X90750000Y-137175000D03*
X91250000Y-137175000D03*
X91750000Y-137175000D03*
X92250000Y-137175000D03*
X92750000Y-137175000D03*
D59*
X94675000Y-135250000D03*
X94675000Y-134750000D03*
X94675000Y-134250000D03*
X94675000Y-133750000D03*
X94675000Y-133250000D03*
X94675000Y-132750000D03*
X94675000Y-132250000D03*
X94675000Y-131750000D03*
X94675000Y-131250000D03*
X94675000Y-130750000D03*
X94675000Y-130250000D03*
X94675000Y-129750000D03*
X94675000Y-129250000D03*
X94675000Y-128750000D03*
X94675000Y-128250000D03*
X94675000Y-127750000D03*
D58*
X92750000Y-125825000D03*
X92250000Y-125825000D03*
X91750000Y-125825000D03*
X91250000Y-125825000D03*
X90750000Y-125825000D03*
X90250000Y-125825000D03*
X89750000Y-125825000D03*
X89250000Y-125825000D03*
X88750000Y-125825000D03*
X88250000Y-125825000D03*
X87750000Y-125825000D03*
X87250000Y-125825000D03*
X86750000Y-125825000D03*
X86250000Y-125825000D03*
X85750000Y-125825000D03*
X85250000Y-125825000D03*
D59*
X83325000Y-127750000D03*
X83325000Y-128250000D03*
X83325000Y-128750000D03*
X83325000Y-129250000D03*
X83325000Y-129750000D03*
X83325000Y-130250000D03*
X83325000Y-130750000D03*
X83325000Y-131250000D03*
X83325000Y-131750000D03*
X83325000Y-132250000D03*
X83325000Y-132750000D03*
X83325000Y-133250000D03*
X83325000Y-133750000D03*
X83325000Y-134250000D03*
X83325000Y-134750000D03*
X83325000Y-135250000D03*
%TD*%
D11*
%TO.C,C60*%
X72898000Y-93928100D03*
X72898000Y-92203100D03*
%TD*%
D13*
%TO.C,R60*%
X196443600Y-147167600D03*
X196443600Y-145342600D03*
%TD*%
D12*
%TO.C,C94*%
X207745500Y-38354000D03*
X206020500Y-38354000D03*
%TD*%
D43*
%TO.C,U11*%
X75307200Y-60264000D03*
X75307200Y-61214000D03*
X75307200Y-62164000D03*
X78007200Y-62164000D03*
X78007200Y-61214000D03*
X78007200Y-60264000D03*
%TD*%
D20*
%TO.C,C59*%
X103886000Y-84024300D03*
X103886000Y-85749300D03*
%TD*%
D12*
%TO.C,C75*%
X163930500Y-122986800D03*
X162205500Y-122986800D03*
%TD*%
D29*
%TO.C,C1*%
X58072000Y-50393600D03*
X52672000Y-50393600D03*
%TD*%
D13*
%TO.C,R61*%
X170688000Y-122578500D03*
X170688000Y-120753500D03*
%TD*%
D18*
%TO.C,C38*%
X82500300Y-62128400D03*
X84225300Y-62128400D03*
%TD*%
D11*
%TO.C,C9*%
X93421200Y-41350100D03*
X93421200Y-39625100D03*
%TD*%
D21*
%TO.C,TP28*%
X105460800Y-125272800D03*
%TD*%
D13*
%TO.C,R183*%
X124460000Y-59891300D03*
X124460000Y-58066300D03*
%TD*%
D60*
%TO.C,U5*%
X86553400Y-43571000D03*
X87203400Y-43571000D03*
X87853400Y-43571000D03*
X88503400Y-43571000D03*
X88503400Y-37846000D03*
X87853400Y-37846000D03*
X87203400Y-37846000D03*
X86553400Y-37846000D03*
%TD*%
D18*
%TO.C,C55*%
X92456000Y-78943200D03*
X94181000Y-78943200D03*
%TD*%
D61*
%TO.C,RS1*%
X85978400Y-46482000D03*
X89078400Y-46482000D03*
%TD*%
D25*
%TO.C,R46*%
X132025500Y-151434800D03*
X130200500Y-151434800D03*
%TD*%
%TO.C,R24*%
X114193256Y-46028043D03*
X112368256Y-46028043D03*
%TD*%
D20*
%TO.C,C44*%
X90373200Y-72441900D03*
X90373200Y-74166900D03*
%TD*%
D10*
%TO.C,U9*%
X139258000Y-45743100D03*
X141158000Y-45743100D03*
X140208000Y-43868100D03*
%TD*%
D15*
%TO.C,J19*%
X176590800Y-46029800D03*
D16*
X176590800Y-43489800D03*
X179130800Y-46029800D03*
X179130800Y-43489800D03*
X181670800Y-46029800D03*
X181670800Y-43489800D03*
X184210800Y-46029800D03*
X184210800Y-43489800D03*
%TD*%
D62*
%TO.C,F1*%
X59182000Y-62164900D03*
X59182000Y-65139900D03*
%TD*%
D25*
%TO.C,R110*%
X225067500Y-116586000D03*
X223242500Y-116586000D03*
%TD*%
D15*
%TO.C,J27*%
X212471000Y-33782000D03*
D16*
X212471000Y-36322000D03*
X212471000Y-38862000D03*
%TD*%
D25*
%TO.C,R138*%
X71829300Y-151231600D03*
X70004300Y-151231600D03*
%TD*%
%TO.C,R19*%
X117774656Y-46013843D03*
X115949656Y-46013843D03*
%TD*%
%TO.C,R165*%
X195425700Y-92100400D03*
X193600700Y-92100400D03*
%TD*%
D15*
%TO.C,J16*%
X228346000Y-45984000D03*
D16*
X228346000Y-48524000D03*
X228346000Y-51064000D03*
X228346000Y-53604000D03*
%TD*%
D52*
%TO.C,X4*%
X166245200Y-139318400D03*
X163345200Y-139318400D03*
X163345200Y-140868400D03*
X166245200Y-140868400D03*
%TD*%
D25*
%TO.C,R111*%
X230401500Y-116586000D03*
X228576500Y-116586000D03*
%TD*%
D23*
%TO.C,R174*%
X150965965Y-110984465D03*
X152790965Y-110984465D03*
%TD*%
D15*
%TO.C,J4*%
X117000000Y-122326400D03*
D16*
X114460000Y-122326400D03*
X117000000Y-119786400D03*
X114460000Y-119786400D03*
X117000000Y-117246400D03*
X114460000Y-117246400D03*
X117000000Y-114706400D03*
X114460000Y-114706400D03*
X117000000Y-112166400D03*
X114460000Y-112166400D03*
X117000000Y-109626400D03*
X114460000Y-109626400D03*
X117000000Y-107086400D03*
X114460000Y-107086400D03*
X117000000Y-104546400D03*
X114460000Y-104546400D03*
X117000000Y-102006400D03*
X114460000Y-102006400D03*
X117000000Y-99466400D03*
X114460000Y-99466400D03*
%TD*%
D13*
%TO.C,R62*%
X179984400Y-122578500D03*
X179984400Y-120753500D03*
%TD*%
D21*
%TO.C,TP10*%
X77419200Y-46482000D03*
%TD*%
D20*
%TO.C,C99*%
X233476800Y-95099800D03*
X233476800Y-96824800D03*
%TD*%
D23*
%TO.C,R217*%
X156567500Y-85902800D03*
X158392500Y-85902800D03*
%TD*%
D15*
%TO.C,J11*%
X143510000Y-122423000D03*
D16*
X143510000Y-124963000D03*
X140970000Y-122423000D03*
X140970000Y-124963000D03*
X138430000Y-122423000D03*
X138430000Y-124963000D03*
X135890000Y-122423000D03*
X135890000Y-124963000D03*
X133350000Y-122423000D03*
X133350000Y-124963000D03*
X130810000Y-122423000D03*
X130810000Y-124963000D03*
%TD*%
D23*
%TO.C,R80*%
X189181100Y-143967200D03*
X191006100Y-143967200D03*
%TD*%
D20*
%TO.C,C48*%
X101981000Y-84024300D03*
X101981000Y-85749300D03*
%TD*%
D23*
%TO.C,R143*%
X98249100Y-152400000D03*
X100074100Y-152400000D03*
%TD*%
D15*
%TO.C,J10*%
X125000000Y-88948000D03*
D16*
X122460000Y-88948000D03*
X125000000Y-86408000D03*
X122460000Y-86408000D03*
X125000000Y-83868000D03*
X122460000Y-83868000D03*
X125000000Y-81328000D03*
X122460000Y-81328000D03*
X125000000Y-78788000D03*
X122460000Y-78788000D03*
X125000000Y-76248000D03*
X122460000Y-76248000D03*
X125000000Y-73708000D03*
X122460000Y-73708000D03*
X125000000Y-71168000D03*
X122460000Y-71168000D03*
X125000000Y-68628000D03*
X122460000Y-68628000D03*
X125000000Y-66088000D03*
X122460000Y-66088000D03*
%TD*%
D44*
%TO.C,ETH1*%
X137730000Y-144350000D03*
X149160000Y-144350000D03*
D45*
X139000000Y-138000000D03*
D46*
X140270000Y-135460000D03*
X141540000Y-138000000D03*
X142810000Y-135460000D03*
X144080000Y-138000000D03*
X145350000Y-135460000D03*
X146620000Y-138000000D03*
X147890000Y-135460000D03*
D47*
X136820000Y-149250000D03*
X139360000Y-149250000D03*
X147530000Y-149250000D03*
X150070000Y-149250000D03*
D48*
X135700000Y-141300000D03*
X151190000Y-141300000D03*
%TD*%
D26*
%TO.C,KEY4*%
X170000000Y-145600000D03*
X170000000Y-153400000D03*
%TD*%
D13*
%TO.C,R172*%
X166776400Y-113993300D03*
X166776400Y-112168300D03*
%TD*%
D20*
%TO.C,C4*%
X68783200Y-40489800D03*
X68783200Y-42214800D03*
%TD*%
D14*
%TO.C,L3*%
X67259200Y-66813400D03*
X67259200Y-65063400D03*
%TD*%
D20*
%TO.C,C29*%
X61518800Y-63247100D03*
X61518800Y-64972100D03*
%TD*%
D19*
%TO.C,MARK2*%
X236000000Y-145500000D03*
%TD*%
D21*
%TO.C,TP24*%
X236067600Y-96062800D03*
%TD*%
D25*
%TO.C,R192*%
X111504100Y-96774000D03*
X109679100Y-96774000D03*
%TD*%
D13*
%TO.C,R104*%
X225552000Y-46769500D03*
X225552000Y-44944500D03*
%TD*%
D25*
%TO.C,R117*%
X225067500Y-130556000D03*
X223242500Y-130556000D03*
%TD*%
D63*
%TO.C,U15*%
X190819000Y-122047000D03*
X190819000Y-123317000D03*
X190819000Y-124587000D03*
X190819000Y-125857000D03*
X195769000Y-125857000D03*
X195769000Y-124587000D03*
X195769000Y-123317000D03*
X195769000Y-122047000D03*
%TD*%
D15*
%TO.C,J5*%
X62500000Y-100000000D03*
D16*
X65040000Y-100000000D03*
X62500000Y-102540000D03*
X65040000Y-102540000D03*
X62500000Y-105080000D03*
X65040000Y-105080000D03*
X62500000Y-107620000D03*
X65040000Y-107620000D03*
X62500000Y-110160000D03*
X65040000Y-110160000D03*
X62500000Y-112700000D03*
X65040000Y-112700000D03*
X62500000Y-115240000D03*
X65040000Y-115240000D03*
X62500000Y-117780000D03*
X65040000Y-117780000D03*
X62500000Y-120320000D03*
X65040000Y-120320000D03*
X62500000Y-122860000D03*
X65040000Y-122860000D03*
%TD*%
D18*
%TO.C,C39*%
X82500300Y-58470800D03*
X84225300Y-58470800D03*
%TD*%
D11*
%TO.C,C73*%
X160985200Y-140955900D03*
X160985200Y-139230900D03*
%TD*%
D23*
%TO.C,R218*%
X156567500Y-84175600D03*
X158392500Y-84175600D03*
%TD*%
D11*
%TO.C,C84*%
X186432000Y-133126500D03*
X186432000Y-131401500D03*
%TD*%
D64*
%TO.C,U10*%
X74081000Y-68335200D03*
X74081000Y-68835200D03*
X74081000Y-69335200D03*
X74081000Y-69835200D03*
X74081000Y-70335200D03*
X74081000Y-70835200D03*
X74081000Y-71335200D03*
X74081000Y-71835200D03*
X74081000Y-72335200D03*
X74081000Y-72835200D03*
X74081000Y-73335200D03*
X74081000Y-73835200D03*
X74081000Y-74335200D03*
X74081000Y-74835200D03*
X74081000Y-75335200D03*
X74081000Y-75835200D03*
D65*
X76006000Y-77760200D03*
X76506000Y-77760200D03*
X77006000Y-77760200D03*
X77506000Y-77760200D03*
X78006000Y-77760200D03*
X78506000Y-77760200D03*
X79006000Y-77760200D03*
X79506000Y-77760200D03*
X80006000Y-77760200D03*
X80506000Y-77760200D03*
X81006000Y-77760200D03*
X81506000Y-77760200D03*
X82006000Y-77760200D03*
X82506000Y-77760200D03*
X83006000Y-77760200D03*
X83506000Y-77760200D03*
D64*
X85431000Y-75835200D03*
X85431000Y-75335200D03*
X85431000Y-74835200D03*
X85431000Y-74335200D03*
X85431000Y-73835200D03*
X85431000Y-73335200D03*
X85431000Y-72835200D03*
X85431000Y-72335200D03*
X85431000Y-71835200D03*
X85431000Y-71335200D03*
X85431000Y-70835200D03*
X85431000Y-70335200D03*
X85431000Y-69835200D03*
X85431000Y-69335200D03*
X85431000Y-68835200D03*
X85431000Y-68335200D03*
D65*
X83506000Y-66410200D03*
X83006000Y-66410200D03*
X82506000Y-66410200D03*
X82006000Y-66410200D03*
X81506000Y-66410200D03*
X81006000Y-66410200D03*
X80506000Y-66410200D03*
X80006000Y-66410200D03*
X79506000Y-66410200D03*
X79006000Y-66410200D03*
X78506000Y-66410200D03*
X78006000Y-66410200D03*
X77506000Y-66410200D03*
X77006000Y-66410200D03*
X76506000Y-66410200D03*
X76006000Y-66410200D03*
%TD*%
D36*
%TO.C,X3*%
X74790600Y-101322800D03*
X74790600Y-98422800D03*
X73240600Y-98422800D03*
X73240600Y-101322800D03*
%TD*%
D21*
%TO.C,TP7*%
X77470000Y-50546000D03*
%TD*%
D26*
%TO.C,ST_RESET1*%
X75742800Y-119368400D03*
X75742800Y-111568400D03*
%TD*%
D17*
%TO.C,R157*%
X217678000Y-57558300D03*
X217678000Y-59383300D03*
%TD*%
D12*
%TO.C,C46*%
X74751100Y-96189800D03*
X73026100Y-96189800D03*
%TD*%
D23*
%TO.C,R29*%
X63247900Y-77978000D03*
X65072900Y-77978000D03*
%TD*%
D17*
%TO.C,R71*%
X200279000Y-124055500D03*
X200279000Y-125880500D03*
%TD*%
D13*
%TO.C,R63*%
X176834800Y-122578500D03*
X176834800Y-120753500D03*
%TD*%
D23*
%TO.C,R75*%
X186586300Y-134931000D03*
X188411300Y-134931000D03*
%TD*%
D12*
%TO.C,C58*%
X102462500Y-108915200D03*
X100737500Y-108915200D03*
%TD*%
D30*
%TO.C,T2*%
X54000000Y-151000000D03*
%TD*%
D15*
%TO.C,J24*%
X184277000Y-33782000D03*
D16*
X184277000Y-36322000D03*
X184277000Y-38862000D03*
%TD*%
D23*
%TO.C,R225*%
X156567500Y-98247200D03*
X158392500Y-98247200D03*
%TD*%
%TO.C,R142*%
X98249100Y-150469600D03*
X100074100Y-150469600D03*
%TD*%
D66*
%TO.C,D1*%
X59614800Y-146304000D03*
X62914800Y-146304000D03*
%TD*%
D17*
%TO.C,R154*%
X220776800Y-61419100D03*
X220776800Y-63244100D03*
%TD*%
D13*
%TO.C,R185*%
X132105400Y-59891300D03*
X132105400Y-58066300D03*
%TD*%
D11*
%TO.C,C37*%
X67564000Y-70583300D03*
X67564000Y-68858300D03*
%TD*%
D13*
%TO.C,R38*%
X71521800Y-81784200D03*
X71521800Y-79959200D03*
%TD*%
D14*
%TO.C,LED1*%
X155194000Y-153337200D03*
X155194000Y-151587200D03*
%TD*%
D23*
%TO.C,R176*%
X150965965Y-107326865D03*
X152790965Y-107326865D03*
%TD*%
D11*
%TO.C,C8*%
X83261200Y-34644500D03*
X83261200Y-32919500D03*
%TD*%
D25*
%TO.C,R69*%
X188364500Y-126513790D03*
X186539500Y-126513790D03*
%TD*%
D21*
%TO.C,TP12*%
X70662800Y-52527200D03*
%TD*%
D23*
%TO.C,R9*%
X67362700Y-36931600D03*
X69187700Y-36931600D03*
%TD*%
%TO.C,R129*%
X205970500Y-32385000D03*
X207795500Y-32385000D03*
%TD*%
D18*
%TO.C,C27*%
X139462300Y-40155100D03*
X141187300Y-40155100D03*
%TD*%
D25*
%TO.C,R152*%
X222654500Y-67310000D03*
X220829500Y-67310000D03*
%TD*%
%TO.C,R120*%
X225067500Y-137541000D03*
X223242500Y-137541000D03*
%TD*%
D11*
%TO.C,C33*%
X63398400Y-63143300D03*
X63398400Y-61418300D03*
%TD*%
D25*
%TO.C,R112*%
X235735500Y-116586000D03*
X233910500Y-116586000D03*
%TD*%
D67*
%TO.C,U17*%
X198685600Y-138099800D03*
X198685600Y-139369800D03*
X198685600Y-140639800D03*
X198685600Y-141909800D03*
X205885600Y-141909800D03*
X205885600Y-140639800D03*
X205885600Y-139369800D03*
X205885600Y-138099800D03*
%TD*%
D21*
%TO.C,TP15*%
X104648000Y-47802800D03*
%TD*%
D20*
%TO.C,C65*%
X103835200Y-91745900D03*
X103835200Y-93470900D03*
%TD*%
D17*
%TO.C,R23*%
X110185200Y-49633500D03*
X110185200Y-51458500D03*
%TD*%
D68*
%TO.C,5V_PWR1*%
X60542200Y-32918400D03*
X62292200Y-32918400D03*
%TD*%
D15*
%TO.C,J6*%
X117000000Y-88948000D03*
D16*
X114460000Y-88948000D03*
X117000000Y-86408000D03*
X114460000Y-86408000D03*
X117000000Y-83868000D03*
X114460000Y-83868000D03*
X117000000Y-81328000D03*
X114460000Y-81328000D03*
X117000000Y-78788000D03*
X114460000Y-78788000D03*
X117000000Y-76248000D03*
X114460000Y-76248000D03*
X117000000Y-73708000D03*
X114460000Y-73708000D03*
X117000000Y-71168000D03*
X114460000Y-71168000D03*
X117000000Y-68628000D03*
X114460000Y-68628000D03*
X117000000Y-66088000D03*
X114460000Y-66088000D03*
%TD*%
D12*
%TO.C,C98*%
X237133300Y-89255600D03*
X235408300Y-89255600D03*
%TD*%
D13*
%TO.C,R87*%
X154228800Y-54506500D03*
X154228800Y-52681500D03*
%TD*%
D17*
%TO.C,R42*%
X84175600Y-115216300D03*
X84175600Y-117041300D03*
%TD*%
D15*
%TO.C,J2*%
X52471400Y-68986400D03*
D16*
X55011400Y-68986400D03*
%TD*%
D20*
%TO.C,C79*%
X196443600Y-151691800D03*
X196443600Y-153416800D03*
%TD*%
D13*
%TO.C,R163*%
X71323200Y-123899300D03*
X71323200Y-122074300D03*
%TD*%
D17*
%TO.C,R3*%
X70764400Y-48414300D03*
X70764400Y-50239300D03*
%TD*%
D58*
%TO.C,U13*%
X157910400Y-136622800D03*
X158410400Y-136622800D03*
X158910400Y-136622800D03*
X159410400Y-136622800D03*
X159910400Y-136622800D03*
X160410400Y-136622800D03*
X160910400Y-136622800D03*
X161410400Y-136622800D03*
X161910400Y-136622800D03*
X162410400Y-136622800D03*
X162910400Y-136622800D03*
X163410400Y-136622800D03*
X163910400Y-136622800D03*
X164410400Y-136622800D03*
X164910400Y-136622800D03*
X165410400Y-136622800D03*
D59*
X167335400Y-134697800D03*
X167335400Y-134197800D03*
X167335400Y-133697800D03*
X167335400Y-133197800D03*
X167335400Y-132697800D03*
X167335400Y-132197800D03*
X167335400Y-131697800D03*
X167335400Y-131197800D03*
X167335400Y-130697800D03*
X167335400Y-130197800D03*
X167335400Y-129697800D03*
X167335400Y-129197800D03*
X167335400Y-128697800D03*
X167335400Y-128197800D03*
X167335400Y-127697800D03*
X167335400Y-127197800D03*
D58*
X165410400Y-125272800D03*
X164910400Y-125272800D03*
X164410400Y-125272800D03*
X163910400Y-125272800D03*
X163410400Y-125272800D03*
X162910400Y-125272800D03*
X162410400Y-125272800D03*
X161910400Y-125272800D03*
X161410400Y-125272800D03*
X160910400Y-125272800D03*
X160410400Y-125272800D03*
X159910400Y-125272800D03*
X159410400Y-125272800D03*
X158910400Y-125272800D03*
X158410400Y-125272800D03*
X157910400Y-125272800D03*
D59*
X155985400Y-127197800D03*
X155985400Y-127697800D03*
X155985400Y-128197800D03*
X155985400Y-128697800D03*
X155985400Y-129197800D03*
X155985400Y-129697800D03*
X155985400Y-130197800D03*
X155985400Y-130697800D03*
X155985400Y-131197800D03*
X155985400Y-131697800D03*
X155985400Y-132197800D03*
X155985400Y-132697800D03*
X155985400Y-133197800D03*
X155985400Y-133697800D03*
X155985400Y-134197800D03*
X155985400Y-134697800D03*
%TD*%
D15*
%TO.C,J18*%
X236347000Y-45984000D03*
D16*
X236347000Y-48524000D03*
X236347000Y-51064000D03*
X236347000Y-53604000D03*
%TD*%
D69*
%TO.C,R98*%
X233297600Y-109728000D03*
X236297600Y-109728000D03*
%TD*%
D20*
%TO.C,C6*%
X68681600Y-48464300D03*
X68681600Y-50189300D03*
%TD*%
D17*
%TO.C,R162*%
X174701200Y-112168300D03*
X174701200Y-113993300D03*
%TD*%
D21*
%TO.C,TP17*%
X149504400Y-101142800D03*
%TD*%
D23*
%TO.C,R190*%
X109729900Y-115976400D03*
X111554900Y-115976400D03*
%TD*%
D13*
%TO.C,R109*%
X233553000Y-54643500D03*
X233553000Y-52818500D03*
%TD*%
%TO.C,R27*%
X143357600Y-41958900D03*
X143357600Y-40133900D03*
%TD*%
D15*
%TO.C,J15*%
X228346000Y-33665000D03*
D16*
X228346000Y-36205000D03*
X228346000Y-38745000D03*
X228346000Y-41285000D03*
%TD*%
D18*
%TO.C,C40*%
X82500300Y-60299600D03*
X84225300Y-60299600D03*
%TD*%
D21*
%TO.C,TP27*%
X105460800Y-122362200D03*
%TD*%
D25*
%TO.C,R188*%
X111504100Y-100330000D03*
X109679100Y-100330000D03*
%TD*%
D17*
%TO.C,R17*%
X102666800Y-36628700D03*
X102666800Y-38453700D03*
%TD*%
D15*
%TO.C,J1*%
X126136400Y-51460400D03*
D16*
X126136400Y-48920400D03*
X128676400Y-51460400D03*
X128676400Y-48920400D03*
X131216400Y-51460400D03*
X131216400Y-48920400D03*
X133756400Y-51460400D03*
X133756400Y-48920400D03*
%TD*%
D25*
%TO.C,R139*%
X71829300Y-153162000D03*
X70004300Y-153162000D03*
%TD*%
D14*
%TO.C,LED4*%
X165065400Y-153337200D03*
X165065400Y-151587200D03*
%TD*%
%TO.C,LED10*%
X68681600Y-147574000D03*
X68681600Y-145824000D03*
%TD*%
D13*
%TO.C,R159*%
X67919600Y-123899300D03*
X67919600Y-122074300D03*
%TD*%
%TO.C,R26*%
X135991600Y-41958900D03*
X135991600Y-40133900D03*
%TD*%
D20*
%TO.C,C20*%
X107848400Y-46076700D03*
X107848400Y-47801700D03*
%TD*%
D11*
%TO.C,C24*%
X107848400Y-51408500D03*
X107848400Y-49683500D03*
%TD*%
D70*
%TO.C,BEEP1*%
X59516400Y-151648600D03*
X63216400Y-151648600D03*
%TD*%
D12*
%TO.C,C51*%
X80821700Y-107340400D03*
X79096700Y-107340400D03*
%TD*%
D13*
%TO.C,R158*%
X69646800Y-123899300D03*
X69646800Y-122074300D03*
%TD*%
%TO.C,R106*%
X217170000Y-47038900D03*
X217170000Y-45213900D03*
%TD*%
D17*
%TO.C,R18*%
X104648000Y-36628700D03*
X104648000Y-38453700D03*
%TD*%
D11*
%TO.C,C45*%
X72288400Y-119531300D03*
X72288400Y-117806300D03*
%TD*%
D17*
%TO.C,R12*%
X90576400Y-50547900D03*
X90576400Y-52372900D03*
%TD*%
D21*
%TO.C,TP14*%
X111201200Y-38354000D03*
%TD*%
D17*
%TO.C,R128*%
X200279000Y-35409500D03*
X200279000Y-37234500D03*
%TD*%
D61*
%TO.C,RS2*%
X94945200Y-46482000D03*
X98045200Y-46482000D03*
%TD*%
D23*
%TO.C,R30*%
X69622500Y-75133200D03*
X71447500Y-75133200D03*
%TD*%
D11*
%TO.C,C13*%
X79857600Y-43026500D03*
X79857600Y-41301500D03*
%TD*%
D21*
%TO.C,TP9*%
X84785200Y-50596800D03*
%TD*%
D24*
%TO.C,LED6*%
X157632400Y-48655000D03*
X157632400Y-50405000D03*
%TD*%
D17*
%TO.C,R135*%
X71678800Y-141376400D03*
X71678800Y-143201400D03*
%TD*%
D23*
%TO.C,R133*%
X63451100Y-90932000D03*
X65276100Y-90932000D03*
%TD*%
D25*
%TO.C,R193*%
X111504100Y-94945200D03*
X109679100Y-94945200D03*
%TD*%
D23*
%TO.C,R132*%
X63451100Y-89103200D03*
X65276100Y-89103200D03*
%TD*%
%TO.C,R53*%
X124866500Y-148336000D03*
X126691500Y-148336000D03*
%TD*%
D30*
%TO.C,T3*%
X236000000Y-34000000D03*
%TD*%
D13*
%TO.C,R76*%
X208432400Y-128270000D03*
X208432400Y-126445000D03*
%TD*%
%TO.C,R25*%
X128981200Y-42111300D03*
X128981200Y-40286300D03*
%TD*%
D18*
%TO.C,C25*%
X125273900Y-40284400D03*
X126998900Y-40284400D03*
%TD*%
%TO.C,C34*%
X69649000Y-76911200D03*
X71374000Y-76911200D03*
%TD*%
D71*
%TO.C,SD1*%
X54508400Y-128981200D03*
X54508400Y-136981200D03*
D72*
X65508400Y-136172200D03*
X65508400Y-135072200D03*
X65508400Y-133973200D03*
X65508400Y-132873200D03*
X65508400Y-131773200D03*
X65508400Y-130672200D03*
X65508400Y-129573200D03*
X65508400Y-128473200D03*
X65508400Y-127373200D03*
D73*
X64508400Y-126173200D03*
D74*
X54908400Y-126181200D03*
X54908400Y-141681200D03*
D75*
X64508400Y-140781200D03*
%TD*%
D13*
%TO.C,R180*%
X128320800Y-59891300D03*
X128320800Y-58066300D03*
%TD*%
D11*
%TO.C,C32*%
X63398400Y-66800900D03*
X63398400Y-65075900D03*
%TD*%
D26*
%TO.C,KEY8*%
X90000000Y-145600000D03*
X90000000Y-153400000D03*
%TD*%
D17*
%TO.C,R198*%
X68122800Y-141378300D03*
X68122800Y-143203300D03*
%TD*%
D76*
%TO.C,L1*%
X79806800Y-33196400D03*
X79806800Y-36196400D03*
%TD*%
D18*
%TO.C,C47*%
X73026100Y-103555800D03*
X74751100Y-103555800D03*
%TD*%
D23*
%TO.C,R97*%
X233478700Y-85394800D03*
X235303700Y-85394800D03*
%TD*%
D15*
%TO.C,J23*%
X224282000Y-140335000D03*
D16*
X226822000Y-140335000D03*
X229362000Y-140335000D03*
X231902000Y-140335000D03*
X234442000Y-140335000D03*
X236982000Y-140335000D03*
%TD*%
D13*
%TO.C,R81*%
X224891600Y-152499700D03*
X224891600Y-150674700D03*
%TD*%
%TO.C,R187*%
X135890000Y-59891300D03*
X135890000Y-58066300D03*
%TD*%
D77*
%TO.C,U12*%
X77837500Y-85250000D03*
X77837500Y-85750000D03*
X77837500Y-86250000D03*
X77837500Y-86750000D03*
X77837500Y-87250000D03*
X77837500Y-87750000D03*
X77837500Y-88250000D03*
X77837500Y-88750000D03*
X77837500Y-89250000D03*
X77837500Y-89750000D03*
X77837500Y-90250000D03*
X77837500Y-90750000D03*
X77837500Y-91250000D03*
X77837500Y-91750000D03*
X77837500Y-92250000D03*
X77837500Y-92750000D03*
X77837500Y-93250000D03*
X77837500Y-93750000D03*
X77837500Y-94250000D03*
X77837500Y-94750000D03*
X77837500Y-95250000D03*
X77837500Y-95750000D03*
X77837500Y-96250000D03*
X77837500Y-96750000D03*
X77837500Y-97250000D03*
X77837500Y-97750000D03*
X77837500Y-98250000D03*
X77837500Y-98750000D03*
X77837500Y-99250000D03*
X77837500Y-99750000D03*
X77837500Y-100250000D03*
X77837500Y-100750000D03*
X77837500Y-101250000D03*
X77837500Y-101750000D03*
X77837500Y-102250000D03*
X77837500Y-102750000D03*
D78*
X79750000Y-104662500D03*
X80250000Y-104662500D03*
X80750000Y-104662500D03*
X81250000Y-104662500D03*
X81750000Y-104662500D03*
X82250000Y-104662500D03*
X82750000Y-104662500D03*
X83250000Y-104662500D03*
X83750000Y-104662500D03*
X84250000Y-104662500D03*
X84750000Y-104662500D03*
X85250000Y-104662500D03*
X85750000Y-104662500D03*
X86250000Y-104662500D03*
X86750000Y-104662500D03*
X87250000Y-104662500D03*
X87750000Y-104662500D03*
X88250000Y-104662500D03*
X88750000Y-104662500D03*
X89250000Y-104662500D03*
X89750000Y-104662500D03*
X90250000Y-104662500D03*
X90750000Y-104662500D03*
X91250000Y-104662500D03*
X91750000Y-104662500D03*
X92250000Y-104662500D03*
X92750000Y-104662500D03*
X93250000Y-104662500D03*
X93750000Y-104662500D03*
X94250000Y-104662500D03*
X94750000Y-104662500D03*
X95250000Y-104662500D03*
X95750000Y-104662500D03*
X96250000Y-104662500D03*
X96750000Y-104662500D03*
X97250000Y-104662500D03*
D77*
X99162500Y-102750000D03*
X99162500Y-102250000D03*
X99162500Y-101750000D03*
X99162500Y-101250000D03*
X99162500Y-100750000D03*
X99162500Y-100250000D03*
X99162500Y-99750000D03*
X99162500Y-99250000D03*
X99162500Y-98750000D03*
X99162500Y-98250000D03*
X99162500Y-97750000D03*
X99162500Y-97250000D03*
X99162500Y-96750000D03*
X99162500Y-96250000D03*
X99162500Y-95750000D03*
X99162500Y-95250000D03*
X99162500Y-94750000D03*
X99162500Y-94250000D03*
X99162500Y-93750000D03*
X99162500Y-93250000D03*
X99162500Y-92750000D03*
X99162500Y-92250000D03*
X99162500Y-91750000D03*
X99162500Y-91250000D03*
X99162500Y-90750000D03*
X99162500Y-90250000D03*
X99162500Y-89750000D03*
X99162500Y-89250000D03*
X99162500Y-88750000D03*
X99162500Y-88250000D03*
X99162500Y-87750000D03*
X99162500Y-87250000D03*
X99162500Y-86750000D03*
X99162500Y-86250000D03*
X99162500Y-85750000D03*
X99162500Y-85250000D03*
D78*
X97250000Y-83337500D03*
X96750000Y-83337500D03*
X96250000Y-83337500D03*
X95750000Y-83337500D03*
X95250000Y-83337500D03*
X94750000Y-83337500D03*
X94250000Y-83337500D03*
X93750000Y-83337500D03*
X93250000Y-83337500D03*
X92750000Y-83337500D03*
X92250000Y-83337500D03*
X91750000Y-83337500D03*
X91250000Y-83337500D03*
X90750000Y-83337500D03*
X90250000Y-83337500D03*
X89750000Y-83337500D03*
X89250000Y-83337500D03*
X88750000Y-83337500D03*
X88250000Y-83337500D03*
X87750000Y-83337500D03*
X87250000Y-83337500D03*
X86750000Y-83337500D03*
X86250000Y-83337500D03*
X85750000Y-83337500D03*
X85250000Y-83337500D03*
X84750000Y-83337500D03*
X84250000Y-83337500D03*
X83750000Y-83337500D03*
X83250000Y-83337500D03*
X82750000Y-83337500D03*
X82250000Y-83337500D03*
X81750000Y-83337500D03*
X81250000Y-83337500D03*
X80750000Y-83337500D03*
X80250000Y-83337500D03*
X79750000Y-83337500D03*
%TD*%
D23*
%TO.C,R226*%
X156567500Y-96469200D03*
X158392500Y-96469200D03*
%TD*%
D21*
%TO.C,TP1*%
X83210400Y-38658800D03*
%TD*%
D20*
%TO.C,C22*%
X99720400Y-40539500D03*
X99720400Y-42264500D03*
%TD*%
D17*
%TO.C,R126*%
X190881000Y-35536500D03*
X190881000Y-37361500D03*
%TD*%
D43*
%TO.C,U1*%
X63724800Y-40502800D03*
X63724800Y-41452800D03*
X63724800Y-42402800D03*
X66424800Y-42402800D03*
X66424800Y-40502800D03*
%TD*%
D17*
%TO.C,R130*%
X209677000Y-35409500D03*
X209677000Y-37234500D03*
%TD*%
D15*
%TO.C,J31*%
X130998200Y-142743000D03*
D16*
X130998200Y-145283000D03*
X128458200Y-142743000D03*
X128458200Y-145283000D03*
X125918200Y-142743000D03*
X125918200Y-145283000D03*
%TD*%
D38*
%TO.C,USB1*%
X56500000Y-74160000D03*
X56500000Y-79875000D03*
D39*
X57945000Y-73800000D03*
X57945000Y-74600000D03*
D40*
X57945000Y-75250000D03*
X57945000Y-75750000D03*
X57945000Y-76250000D03*
X57945000Y-76750000D03*
X57945000Y-77250000D03*
X57945000Y-77750000D03*
X57945000Y-78250000D03*
X57945000Y-78750000D03*
D39*
X57945000Y-79400000D03*
X57945000Y-80200000D03*
D41*
X57030000Y-72730000D03*
X57030000Y-81275000D03*
D42*
X52850000Y-72730000D03*
X52850000Y-81275000D03*
%TD*%
D21*
%TO.C,TP29*%
X194665600Y-149453600D03*
%TD*%
D28*
%TO.C,SW1*%
X94234000Y-74396000D03*
X96774000Y-74396000D03*
X99314000Y-74396000D03*
X101854000Y-74396000D03*
X101854000Y-65786000D03*
X99314000Y-65786000D03*
X96774000Y-65786000D03*
X94234000Y-65786000D03*
%TD*%
D13*
%TO.C,R52*%
X157861000Y-141005900D03*
X157861000Y-139180900D03*
%TD*%
D17*
%TO.C,R51*%
X143764000Y-130200400D03*
X143764000Y-132025400D03*
%TD*%
D23*
%TO.C,R122*%
X234037500Y-137541000D03*
X235862500Y-137541000D03*
%TD*%
D25*
%TO.C,R168*%
X195423800Y-87020400D03*
X193598800Y-87020400D03*
%TD*%
D13*
%TO.C,R184*%
X130200400Y-59891300D03*
X130200400Y-58066300D03*
%TD*%
D23*
%TO.C,R125*%
X187174500Y-32385000D03*
X188999500Y-32385000D03*
%TD*%
D12*
%TO.C,C90*%
X188949500Y-38735000D03*
X187224500Y-38735000D03*
%TD*%
D11*
%TO.C,C12*%
X83058000Y-43026500D03*
X83058000Y-41301500D03*
%TD*%
D13*
%TO.C,R34*%
X80264000Y-62126500D03*
X80264000Y-60301500D03*
%TD*%
D17*
%TO.C,R85*%
X165100000Y-147626700D03*
X165100000Y-149451700D03*
%TD*%
%TO.C,R204*%
X119735600Y-114354600D03*
X119735600Y-116179600D03*
%TD*%
D60*
%TO.C,U4*%
X95494200Y-43451700D03*
X96144200Y-43451700D03*
X96794200Y-43451700D03*
X97444200Y-43451700D03*
X97444200Y-37726700D03*
X96794200Y-37726700D03*
X96144200Y-37726700D03*
X95494200Y-37726700D03*
%TD*%
D11*
%TO.C,C85*%
X188464000Y-133126500D03*
X188464000Y-131401500D03*
%TD*%
D23*
%TO.C,R115*%
X232005500Y-123571000D03*
X233830500Y-123571000D03*
%TD*%
D13*
%TO.C,R88*%
X150723600Y-54457600D03*
X150723600Y-52632600D03*
%TD*%
D23*
%TO.C,R216*%
X156567500Y-87630000D03*
X158392500Y-87630000D03*
%TD*%
D25*
%TO.C,R35*%
X80566900Y-58369200D03*
X78741900Y-58369200D03*
%TD*%
%TO.C,R153*%
X222654500Y-70358000D03*
X220829500Y-70358000D03*
%TD*%
D11*
%TO.C,C76*%
X89509600Y-141730900D03*
X89509600Y-140005900D03*
%TD*%
D26*
%TO.C,KEY3*%
X175000000Y-145600000D03*
X175000000Y-153400000D03*
%TD*%
D17*
%TO.C,R58*%
X114000000Y-129087500D03*
X114000000Y-130912500D03*
%TD*%
D13*
%TO.C,R145*%
X190601600Y-113942500D03*
X190601600Y-112117500D03*
%TD*%
M02*
