%TF.GenerationSoftware,KiCad,Pcbnew,7.0.1*%
%TF.CreationDate,2023-05-17T15:07:38+08:00*%
%TF.ProjectId,PSVB_EvalBoard,50535642-5f45-4766-916c-426f6172642e,rev?*%
%TF.SameCoordinates,Original*%
%TF.FileFunction,Soldermask,Bot*%
%TF.FilePolarity,Negative*%
%FSLAX46Y46*%
G04 Gerber Fmt 4.6, Leading zero omitted, Abs format (unit mm)*
G04 Created by KiCad (PCBNEW 7.0.1) date 2023-05-17 15:07:38*
%MOMM*%
%LPD*%
G01*
G04 APERTURE LIST*
%ADD10R,1.700000X1.700000*%
%ADD11O,1.700000X1.700000*%
%ADD12C,5.304000*%
%ADD13C,1.400000*%
%ADD14C,1.700000*%
%ADD15C,0.650000*%
%ADD16O,2.340000X1.240000*%
%ADD17O,1.740000X1.240000*%
%ADD18C,3.250000*%
%ADD19R,1.900000X1.900000*%
%ADD20C,1.900000*%
%ADD21C,2.100000*%
%ADD22C,2.600000*%
%ADD23C,1.300000*%
%ADD24C,1.000000*%
G04 APERTURE END LIST*
D10*
%TO.C,J9*%
X125000000Y-122326400D03*
D11*
X122460000Y-122326400D03*
X125000000Y-119786400D03*
X122460000Y-119786400D03*
X125000000Y-117246400D03*
X122460000Y-117246400D03*
X125000000Y-114706400D03*
X122460000Y-114706400D03*
X125000000Y-112166400D03*
X122460000Y-112166400D03*
X125000000Y-109626400D03*
X122460000Y-109626400D03*
X125000000Y-107086400D03*
X122460000Y-107086400D03*
X125000000Y-104546400D03*
X122460000Y-104546400D03*
X125000000Y-102006400D03*
X122460000Y-102006400D03*
X125000000Y-99466400D03*
X122460000Y-99466400D03*
%TD*%
D10*
%TO.C,AKINA_JTAG1*%
X116987400Y-58262600D03*
D11*
X116987400Y-60802600D03*
X114447400Y-58262600D03*
X114447400Y-60802600D03*
X111907400Y-58262600D03*
X111907400Y-60802600D03*
X109367400Y-58262600D03*
X109367400Y-60802600D03*
X106827400Y-58262600D03*
X106827400Y-60802600D03*
%TD*%
D12*
%TO.C,T1*%
X54000000Y-34000000D03*
%TD*%
D10*
%TO.C,J22*%
X224282000Y-133350000D03*
D11*
X226822000Y-133350000D03*
X229362000Y-133350000D03*
X231902000Y-133350000D03*
X234442000Y-133350000D03*
X236982000Y-133350000D03*
%TD*%
D10*
%TO.C,J13*%
X233522600Y-100091000D03*
D11*
X236062600Y-100091000D03*
X233522600Y-102631000D03*
X236062600Y-102631000D03*
X233522600Y-105171000D03*
X236062600Y-105171000D03*
%TD*%
D10*
%TO.C,J21*%
X224282000Y-126365000D03*
D11*
X226822000Y-126365000D03*
X229362000Y-126365000D03*
X231902000Y-126365000D03*
X234442000Y-126365000D03*
X236982000Y-126365000D03*
%TD*%
D10*
%TO.C,J28*%
X99771200Y-121462800D03*
D11*
X99771200Y-124002800D03*
X99771200Y-126542800D03*
%TD*%
D10*
%TO.C,J29*%
X167655000Y-41559400D03*
D11*
X167655000Y-39019400D03*
X170195000Y-41559400D03*
X170195000Y-39019400D03*
X172735000Y-41559400D03*
X172735000Y-39019400D03*
%TD*%
D10*
%TO.C,J8*%
X228244400Y-110083600D03*
D11*
X225704400Y-110083600D03*
X228244400Y-107543600D03*
X225704400Y-107543600D03*
X228244400Y-105003600D03*
X225704400Y-105003600D03*
X228244400Y-102463600D03*
X225704400Y-102463600D03*
X228244400Y-99923600D03*
X225704400Y-99923600D03*
X228244400Y-97383600D03*
X225704400Y-97383600D03*
X228244400Y-94843600D03*
X225704400Y-94843600D03*
X228244400Y-92303600D03*
X225704400Y-92303600D03*
X228244400Y-89763600D03*
X225704400Y-89763600D03*
X228244400Y-87223600D03*
X225704400Y-87223600D03*
%TD*%
D10*
%TO.C,J26*%
X203073000Y-33655000D03*
D11*
X203073000Y-36195000D03*
X203073000Y-38735000D03*
%TD*%
D13*
%TO.C,BTB100x1*%
X210000000Y-109675000D03*
D14*
X210000000Y-65775000D03*
D13*
X140000000Y-109725000D03*
D14*
X140000000Y-65775000D03*
%TD*%
D12*
%TO.C,T4*%
X235983200Y-150971600D03*
%TD*%
D15*
%TO.C,USB2*%
X56500000Y-87160000D03*
X56500000Y-92875000D03*
D16*
X57030000Y-85730000D03*
X57030000Y-94275000D03*
D17*
X52850000Y-85730000D03*
X52850000Y-94275000D03*
%TD*%
D10*
%TO.C,J14*%
X219964000Y-33792000D03*
D11*
X219964000Y-36332000D03*
X219964000Y-38872000D03*
X219964000Y-41412000D03*
%TD*%
D10*
%TO.C,J12*%
X236270800Y-81686400D03*
D11*
X233730800Y-81686400D03*
X236270800Y-79146400D03*
X233730800Y-79146400D03*
X236270800Y-76606400D03*
X233730800Y-76606400D03*
X236270800Y-74066400D03*
X233730800Y-74066400D03*
X236270800Y-71526400D03*
X233730800Y-71526400D03*
X236270800Y-68986400D03*
X233730800Y-68986400D03*
X236270800Y-66446400D03*
X233730800Y-66446400D03*
X236270800Y-63906400D03*
X233730800Y-63906400D03*
X236270800Y-61366400D03*
X233730800Y-61366400D03*
X236270800Y-58826400D03*
X233730800Y-58826400D03*
%TD*%
D18*
%TO.C,ETH2*%
X107730000Y-144350000D03*
X119160000Y-144350000D03*
D19*
X109000000Y-138000000D03*
D20*
X110270000Y-135460000D03*
X111540000Y-138000000D03*
X112810000Y-135460000D03*
X114080000Y-138000000D03*
X115350000Y-135460000D03*
X116620000Y-138000000D03*
X117890000Y-135460000D03*
D21*
X106820000Y-149250000D03*
X109360000Y-149250000D03*
X117530000Y-149250000D03*
X120070000Y-149250000D03*
D22*
X105700000Y-141300000D03*
X121190000Y-141300000D03*
%TD*%
D10*
%TO.C,ST_JTAG1*%
X102463600Y-58267600D03*
D11*
X102463600Y-60807600D03*
X99923600Y-58267600D03*
X99923600Y-60807600D03*
X97383600Y-58267600D03*
X97383600Y-60807600D03*
X94843600Y-58267600D03*
X94843600Y-60807600D03*
X92303600Y-58267600D03*
X92303600Y-60807600D03*
%TD*%
D10*
%TO.C,J7*%
X228219000Y-81686400D03*
D11*
X225679000Y-81686400D03*
X228219000Y-79146400D03*
X225679000Y-79146400D03*
X228219000Y-76606400D03*
X225679000Y-76606400D03*
X228219000Y-74066400D03*
X225679000Y-74066400D03*
X228219000Y-71526400D03*
X225679000Y-71526400D03*
X228219000Y-68986400D03*
X225679000Y-68986400D03*
X228219000Y-66446400D03*
X225679000Y-66446400D03*
X228219000Y-63906400D03*
X225679000Y-63906400D03*
X228219000Y-61366400D03*
X225679000Y-61366400D03*
X228219000Y-58826400D03*
X225679000Y-58826400D03*
%TD*%
D10*
%TO.C,J25*%
X193675000Y-33782000D03*
D11*
X193675000Y-36322000D03*
X193675000Y-38862000D03*
%TD*%
D10*
%TO.C,J30*%
X172705000Y-32354600D03*
D11*
X172705000Y-34894600D03*
X170165000Y-32354600D03*
X170165000Y-34894600D03*
X167625000Y-32354600D03*
X167625000Y-34894600D03*
%TD*%
D10*
%TO.C,J20*%
X224282000Y-119380000D03*
D11*
X226822000Y-119380000D03*
X229362000Y-119380000D03*
X231902000Y-119380000D03*
X234442000Y-119380000D03*
X236982000Y-119380000D03*
%TD*%
D10*
%TO.C,J17*%
X219964000Y-46126400D03*
D11*
X219964000Y-48666400D03*
X219964000Y-51206400D03*
X219964000Y-53746400D03*
%TD*%
D10*
%TO.C,SCREEN1*%
X211480400Y-138430000D03*
D11*
X211480400Y-135890000D03*
X211480400Y-133350000D03*
X211480400Y-130810000D03*
X211480400Y-128270000D03*
X211480400Y-125730000D03*
X211480400Y-123190000D03*
X211480400Y-120650000D03*
%TD*%
D10*
%TO.C,J3*%
X54000000Y-100000000D03*
D11*
X56540000Y-100000000D03*
X54000000Y-102540000D03*
X56540000Y-102540000D03*
X54000000Y-105080000D03*
X56540000Y-105080000D03*
X54000000Y-107620000D03*
X56540000Y-107620000D03*
X54000000Y-110160000D03*
X56540000Y-110160000D03*
X54000000Y-112700000D03*
X56540000Y-112700000D03*
X54000000Y-115240000D03*
X56540000Y-115240000D03*
X54000000Y-117780000D03*
X56540000Y-117780000D03*
X54000000Y-120320000D03*
X56540000Y-120320000D03*
X54000000Y-122860000D03*
X56540000Y-122860000D03*
%TD*%
D23*
%TO.C,BAT1*%
X158864400Y-39065200D03*
X151364400Y-39065200D03*
%TD*%
D10*
%TO.C,J19*%
X176590800Y-46029800D03*
D11*
X176590800Y-43489800D03*
X179130800Y-46029800D03*
X179130800Y-43489800D03*
X181670800Y-46029800D03*
X181670800Y-43489800D03*
X184210800Y-46029800D03*
X184210800Y-43489800D03*
%TD*%
D10*
%TO.C,J27*%
X212471000Y-33782000D03*
D11*
X212471000Y-36322000D03*
X212471000Y-38862000D03*
%TD*%
D10*
%TO.C,J16*%
X228346000Y-45984000D03*
D11*
X228346000Y-48524000D03*
X228346000Y-51064000D03*
X228346000Y-53604000D03*
%TD*%
D10*
%TO.C,J4*%
X117000000Y-122326400D03*
D11*
X114460000Y-122326400D03*
X117000000Y-119786400D03*
X114460000Y-119786400D03*
X117000000Y-117246400D03*
X114460000Y-117246400D03*
X117000000Y-114706400D03*
X114460000Y-114706400D03*
X117000000Y-112166400D03*
X114460000Y-112166400D03*
X117000000Y-109626400D03*
X114460000Y-109626400D03*
X117000000Y-107086400D03*
X114460000Y-107086400D03*
X117000000Y-104546400D03*
X114460000Y-104546400D03*
X117000000Y-102006400D03*
X114460000Y-102006400D03*
X117000000Y-99466400D03*
X114460000Y-99466400D03*
%TD*%
D10*
%TO.C,J11*%
X143510000Y-122423000D03*
D11*
X143510000Y-124963000D03*
X140970000Y-122423000D03*
X140970000Y-124963000D03*
X138430000Y-122423000D03*
X138430000Y-124963000D03*
X135890000Y-122423000D03*
X135890000Y-124963000D03*
X133350000Y-122423000D03*
X133350000Y-124963000D03*
X130810000Y-122423000D03*
X130810000Y-124963000D03*
%TD*%
D10*
%TO.C,J10*%
X125000000Y-88948000D03*
D11*
X122460000Y-88948000D03*
X125000000Y-86408000D03*
X122460000Y-86408000D03*
X125000000Y-83868000D03*
X122460000Y-83868000D03*
X125000000Y-81328000D03*
X122460000Y-81328000D03*
X125000000Y-78788000D03*
X122460000Y-78788000D03*
X125000000Y-76248000D03*
X122460000Y-76248000D03*
X125000000Y-73708000D03*
X122460000Y-73708000D03*
X125000000Y-71168000D03*
X122460000Y-71168000D03*
X125000000Y-68628000D03*
X122460000Y-68628000D03*
X125000000Y-66088000D03*
X122460000Y-66088000D03*
%TD*%
D18*
%TO.C,ETH1*%
X137730000Y-144350000D03*
X149160000Y-144350000D03*
D19*
X139000000Y-138000000D03*
D20*
X140270000Y-135460000D03*
X141540000Y-138000000D03*
X142810000Y-135460000D03*
X144080000Y-138000000D03*
X145350000Y-135460000D03*
X146620000Y-138000000D03*
X147890000Y-135460000D03*
D21*
X136820000Y-149250000D03*
X139360000Y-149250000D03*
X147530000Y-149250000D03*
X150070000Y-149250000D03*
D22*
X135700000Y-141300000D03*
X151190000Y-141300000D03*
%TD*%
D10*
%TO.C,J5*%
X62500000Y-100000000D03*
D11*
X65040000Y-100000000D03*
X62500000Y-102540000D03*
X65040000Y-102540000D03*
X62500000Y-105080000D03*
X65040000Y-105080000D03*
X62500000Y-107620000D03*
X65040000Y-107620000D03*
X62500000Y-110160000D03*
X65040000Y-110160000D03*
X62500000Y-112700000D03*
X65040000Y-112700000D03*
X62500000Y-115240000D03*
X65040000Y-115240000D03*
X62500000Y-117780000D03*
X65040000Y-117780000D03*
X62500000Y-120320000D03*
X65040000Y-120320000D03*
X62500000Y-122860000D03*
X65040000Y-122860000D03*
%TD*%
D12*
%TO.C,T2*%
X54000000Y-151000000D03*
%TD*%
D10*
%TO.C,J24*%
X184277000Y-33782000D03*
D11*
X184277000Y-36322000D03*
X184277000Y-38862000D03*
%TD*%
D10*
%TO.C,J6*%
X117000000Y-88948000D03*
D11*
X114460000Y-88948000D03*
X117000000Y-86408000D03*
X114460000Y-86408000D03*
X117000000Y-83868000D03*
X114460000Y-83868000D03*
X117000000Y-81328000D03*
X114460000Y-81328000D03*
X117000000Y-78788000D03*
X114460000Y-78788000D03*
X117000000Y-76248000D03*
X114460000Y-76248000D03*
X117000000Y-73708000D03*
X114460000Y-73708000D03*
X117000000Y-71168000D03*
X114460000Y-71168000D03*
X117000000Y-68628000D03*
X114460000Y-68628000D03*
X117000000Y-66088000D03*
X114460000Y-66088000D03*
%TD*%
D10*
%TO.C,J2*%
X52471400Y-68986400D03*
D11*
X55011400Y-68986400D03*
%TD*%
D10*
%TO.C,J18*%
X236347000Y-45984000D03*
D11*
X236347000Y-48524000D03*
X236347000Y-51064000D03*
X236347000Y-53604000D03*
%TD*%
D10*
%TO.C,J15*%
X228346000Y-33665000D03*
D11*
X228346000Y-36205000D03*
X228346000Y-38745000D03*
X228346000Y-41285000D03*
%TD*%
D10*
%TO.C,J1*%
X126136400Y-51460400D03*
D11*
X126136400Y-48920400D03*
X128676400Y-51460400D03*
X128676400Y-48920400D03*
X131216400Y-51460400D03*
X131216400Y-48920400D03*
X133756400Y-51460400D03*
X133756400Y-48920400D03*
%TD*%
D12*
%TO.C,T3*%
X236000000Y-34000000D03*
%TD*%
D24*
%TO.C,SD1*%
X54508400Y-128981200D03*
X54508400Y-136981200D03*
%TD*%
D10*
%TO.C,J23*%
X224282000Y-140335000D03*
D11*
X226822000Y-140335000D03*
X229362000Y-140335000D03*
X231902000Y-140335000D03*
X234442000Y-140335000D03*
X236982000Y-140335000D03*
%TD*%
D10*
%TO.C,J31*%
X130998200Y-142743000D03*
D11*
X130998200Y-145283000D03*
X128458200Y-142743000D03*
X128458200Y-145283000D03*
X125918200Y-142743000D03*
X125918200Y-145283000D03*
%TD*%
D15*
%TO.C,USB1*%
X56500000Y-74160000D03*
X56500000Y-79875000D03*
D16*
X57030000Y-72730000D03*
X57030000Y-81275000D03*
D17*
X52850000Y-72730000D03*
X52850000Y-81275000D03*
%TD*%
M02*
